G75*
%MOIN*%
%OFA0B0*%
%FSLAX25Y25*%
%IPPOS*%
%LPD*%
%AMOC8*
5,1,8,0,0,1.08239X$1,22.5*
%
%ADD10C,0.01000*%
%ADD11C,0.00300*%
%ADD12C,0.00600*%
%ADD13C,0.00000*%
%ADD14C,0.00800*%
D10*
X0006800Y0021144D02*
X0086800Y0021144D01*
X0086940Y0021146D01*
X0087080Y0021152D01*
X0087220Y0021162D01*
X0087360Y0021175D01*
X0087499Y0021193D01*
X0087638Y0021215D01*
X0087775Y0021240D01*
X0087913Y0021269D01*
X0088049Y0021302D01*
X0088184Y0021339D01*
X0088318Y0021380D01*
X0088451Y0021425D01*
X0088583Y0021473D01*
X0088713Y0021525D01*
X0088842Y0021580D01*
X0088969Y0021639D01*
X0089095Y0021702D01*
X0089219Y0021768D01*
X0089340Y0021837D01*
X0089460Y0021910D01*
X0089578Y0021987D01*
X0089693Y0022066D01*
X0089807Y0022149D01*
X0089917Y0022235D01*
X0090026Y0022324D01*
X0090132Y0022416D01*
X0090235Y0022511D01*
X0090336Y0022608D01*
X0090433Y0022709D01*
X0090528Y0022812D01*
X0090620Y0022918D01*
X0090709Y0023027D01*
X0090795Y0023137D01*
X0090878Y0023251D01*
X0090957Y0023366D01*
X0091034Y0023484D01*
X0091107Y0023604D01*
X0091176Y0023725D01*
X0091242Y0023849D01*
X0091305Y0023975D01*
X0091364Y0024102D01*
X0091419Y0024231D01*
X0091471Y0024361D01*
X0091519Y0024493D01*
X0091564Y0024626D01*
X0091605Y0024760D01*
X0091642Y0024895D01*
X0091675Y0025031D01*
X0091704Y0025169D01*
X0091729Y0025306D01*
X0091751Y0025445D01*
X0091769Y0025584D01*
X0091782Y0025724D01*
X0091792Y0025864D01*
X0091798Y0026004D01*
X0091800Y0026144D01*
X0091800Y0211144D01*
X0076800Y0211144D02*
X0076802Y0211285D01*
X0076808Y0211426D01*
X0076818Y0211566D01*
X0076832Y0211706D01*
X0076850Y0211846D01*
X0076871Y0211985D01*
X0076897Y0212124D01*
X0076926Y0212262D01*
X0076960Y0212398D01*
X0076997Y0212534D01*
X0077038Y0212669D01*
X0077083Y0212803D01*
X0077132Y0212935D01*
X0077184Y0213066D01*
X0077240Y0213195D01*
X0077300Y0213322D01*
X0077363Y0213448D01*
X0077429Y0213572D01*
X0077500Y0213695D01*
X0077573Y0213815D01*
X0077650Y0213933D01*
X0077730Y0214049D01*
X0077814Y0214162D01*
X0077900Y0214273D01*
X0077990Y0214382D01*
X0078083Y0214488D01*
X0078178Y0214591D01*
X0078277Y0214692D01*
X0078378Y0214790D01*
X0078482Y0214885D01*
X0078589Y0214977D01*
X0078698Y0215066D01*
X0078810Y0215151D01*
X0078924Y0215234D01*
X0079040Y0215314D01*
X0079159Y0215390D01*
X0079280Y0215462D01*
X0079402Y0215532D01*
X0079527Y0215597D01*
X0079653Y0215660D01*
X0079781Y0215718D01*
X0079911Y0215773D01*
X0080042Y0215825D01*
X0080175Y0215872D01*
X0080309Y0215916D01*
X0080444Y0215957D01*
X0080580Y0215993D01*
X0080717Y0216025D01*
X0080855Y0216054D01*
X0080993Y0216079D01*
X0081133Y0216099D01*
X0081273Y0216116D01*
X0081413Y0216129D01*
X0081554Y0216138D01*
X0081694Y0216143D01*
X0081835Y0216144D01*
X0081976Y0216141D01*
X0082117Y0216134D01*
X0082257Y0216123D01*
X0082397Y0216108D01*
X0082537Y0216089D01*
X0082676Y0216067D01*
X0082814Y0216040D01*
X0082952Y0216010D01*
X0083088Y0215975D01*
X0083224Y0215937D01*
X0083358Y0215895D01*
X0083492Y0215849D01*
X0083624Y0215800D01*
X0083754Y0215746D01*
X0083883Y0215689D01*
X0084010Y0215629D01*
X0084136Y0215565D01*
X0084259Y0215497D01*
X0084381Y0215426D01*
X0084501Y0215352D01*
X0084618Y0215274D01*
X0084733Y0215193D01*
X0084846Y0215109D01*
X0084957Y0215022D01*
X0085065Y0214931D01*
X0085170Y0214838D01*
X0085273Y0214741D01*
X0085373Y0214642D01*
X0085470Y0214540D01*
X0085564Y0214435D01*
X0085655Y0214328D01*
X0085743Y0214218D01*
X0085828Y0214106D01*
X0085910Y0213991D01*
X0085989Y0213874D01*
X0086064Y0213755D01*
X0086136Y0213634D01*
X0086204Y0213511D01*
X0086269Y0213386D01*
X0086331Y0213259D01*
X0086388Y0213130D01*
X0086443Y0213000D01*
X0086493Y0212869D01*
X0086540Y0212736D01*
X0086583Y0212602D01*
X0086622Y0212466D01*
X0086657Y0212330D01*
X0086689Y0212193D01*
X0086716Y0212055D01*
X0086740Y0211916D01*
X0086760Y0211776D01*
X0086776Y0211636D01*
X0086788Y0211496D01*
X0086796Y0211355D01*
X0086800Y0211214D01*
X0086800Y0211074D01*
X0086796Y0210933D01*
X0086788Y0210792D01*
X0086776Y0210652D01*
X0086760Y0210512D01*
X0086740Y0210372D01*
X0086716Y0210233D01*
X0086689Y0210095D01*
X0086657Y0209958D01*
X0086622Y0209822D01*
X0086583Y0209686D01*
X0086540Y0209552D01*
X0086493Y0209419D01*
X0086443Y0209288D01*
X0086388Y0209158D01*
X0086331Y0209029D01*
X0086269Y0208902D01*
X0086204Y0208777D01*
X0086136Y0208654D01*
X0086064Y0208533D01*
X0085989Y0208414D01*
X0085910Y0208297D01*
X0085828Y0208182D01*
X0085743Y0208070D01*
X0085655Y0207960D01*
X0085564Y0207853D01*
X0085470Y0207748D01*
X0085373Y0207646D01*
X0085273Y0207547D01*
X0085170Y0207450D01*
X0085065Y0207357D01*
X0084957Y0207266D01*
X0084846Y0207179D01*
X0084733Y0207095D01*
X0084618Y0207014D01*
X0084501Y0206936D01*
X0084381Y0206862D01*
X0084259Y0206791D01*
X0084136Y0206723D01*
X0084010Y0206659D01*
X0083883Y0206599D01*
X0083754Y0206542D01*
X0083624Y0206488D01*
X0083492Y0206439D01*
X0083358Y0206393D01*
X0083224Y0206351D01*
X0083088Y0206313D01*
X0082952Y0206278D01*
X0082814Y0206248D01*
X0082676Y0206221D01*
X0082537Y0206199D01*
X0082397Y0206180D01*
X0082257Y0206165D01*
X0082117Y0206154D01*
X0081976Y0206147D01*
X0081835Y0206144D01*
X0081694Y0206145D01*
X0081554Y0206150D01*
X0081413Y0206159D01*
X0081273Y0206172D01*
X0081133Y0206189D01*
X0080993Y0206209D01*
X0080855Y0206234D01*
X0080717Y0206263D01*
X0080580Y0206295D01*
X0080444Y0206331D01*
X0080309Y0206372D01*
X0080175Y0206416D01*
X0080042Y0206463D01*
X0079911Y0206515D01*
X0079781Y0206570D01*
X0079653Y0206628D01*
X0079527Y0206691D01*
X0079402Y0206756D01*
X0079280Y0206826D01*
X0079159Y0206898D01*
X0079040Y0206974D01*
X0078924Y0207054D01*
X0078810Y0207137D01*
X0078698Y0207222D01*
X0078589Y0207311D01*
X0078482Y0207403D01*
X0078378Y0207498D01*
X0078277Y0207596D01*
X0078178Y0207697D01*
X0078083Y0207800D01*
X0077990Y0207906D01*
X0077900Y0208015D01*
X0077814Y0208126D01*
X0077730Y0208239D01*
X0077650Y0208355D01*
X0077573Y0208473D01*
X0077500Y0208593D01*
X0077429Y0208716D01*
X0077363Y0208840D01*
X0077300Y0208966D01*
X0077240Y0209093D01*
X0077184Y0209222D01*
X0077132Y0209353D01*
X0077083Y0209485D01*
X0077038Y0209619D01*
X0076997Y0209754D01*
X0076960Y0209890D01*
X0076926Y0210026D01*
X0076897Y0210164D01*
X0076871Y0210303D01*
X0076850Y0210442D01*
X0076832Y0210582D01*
X0076818Y0210722D01*
X0076808Y0210862D01*
X0076802Y0211003D01*
X0076800Y0211144D01*
X0081800Y0221144D02*
X0082042Y0221141D01*
X0082283Y0221132D01*
X0082524Y0221118D01*
X0082765Y0221097D01*
X0083005Y0221071D01*
X0083245Y0221039D01*
X0083484Y0221001D01*
X0083721Y0220958D01*
X0083958Y0220908D01*
X0084193Y0220853D01*
X0084427Y0220793D01*
X0084659Y0220726D01*
X0084890Y0220655D01*
X0085119Y0220577D01*
X0085346Y0220494D01*
X0085571Y0220406D01*
X0085794Y0220312D01*
X0086014Y0220213D01*
X0086232Y0220108D01*
X0086447Y0219999D01*
X0086660Y0219884D01*
X0086870Y0219764D01*
X0087076Y0219639D01*
X0087280Y0219509D01*
X0087481Y0219374D01*
X0087678Y0219234D01*
X0087872Y0219090D01*
X0088062Y0218941D01*
X0088248Y0218787D01*
X0088431Y0218629D01*
X0088610Y0218467D01*
X0088785Y0218300D01*
X0088956Y0218129D01*
X0089123Y0217954D01*
X0089285Y0217775D01*
X0089443Y0217592D01*
X0089597Y0217406D01*
X0089746Y0217216D01*
X0089890Y0217022D01*
X0090030Y0216825D01*
X0090165Y0216624D01*
X0090295Y0216420D01*
X0090420Y0216214D01*
X0090540Y0216004D01*
X0090655Y0215791D01*
X0090764Y0215576D01*
X0090869Y0215358D01*
X0090968Y0215138D01*
X0091062Y0214915D01*
X0091150Y0214690D01*
X0091233Y0214463D01*
X0091311Y0214234D01*
X0091382Y0214003D01*
X0091449Y0213771D01*
X0091509Y0213537D01*
X0091564Y0213302D01*
X0091614Y0213065D01*
X0091657Y0212828D01*
X0091695Y0212589D01*
X0091727Y0212349D01*
X0091753Y0212109D01*
X0091774Y0211868D01*
X0091788Y0211627D01*
X0091797Y0211386D01*
X0091800Y0211144D01*
X0081800Y0221144D02*
X0011800Y0221144D01*
X0006800Y0211144D02*
X0006802Y0211285D01*
X0006808Y0211426D01*
X0006818Y0211566D01*
X0006832Y0211706D01*
X0006850Y0211846D01*
X0006871Y0211985D01*
X0006897Y0212124D01*
X0006926Y0212262D01*
X0006960Y0212398D01*
X0006997Y0212534D01*
X0007038Y0212669D01*
X0007083Y0212803D01*
X0007132Y0212935D01*
X0007184Y0213066D01*
X0007240Y0213195D01*
X0007300Y0213322D01*
X0007363Y0213448D01*
X0007429Y0213572D01*
X0007500Y0213695D01*
X0007573Y0213815D01*
X0007650Y0213933D01*
X0007730Y0214049D01*
X0007814Y0214162D01*
X0007900Y0214273D01*
X0007990Y0214382D01*
X0008083Y0214488D01*
X0008178Y0214591D01*
X0008277Y0214692D01*
X0008378Y0214790D01*
X0008482Y0214885D01*
X0008589Y0214977D01*
X0008698Y0215066D01*
X0008810Y0215151D01*
X0008924Y0215234D01*
X0009040Y0215314D01*
X0009159Y0215390D01*
X0009280Y0215462D01*
X0009402Y0215532D01*
X0009527Y0215597D01*
X0009653Y0215660D01*
X0009781Y0215718D01*
X0009911Y0215773D01*
X0010042Y0215825D01*
X0010175Y0215872D01*
X0010309Y0215916D01*
X0010444Y0215957D01*
X0010580Y0215993D01*
X0010717Y0216025D01*
X0010855Y0216054D01*
X0010993Y0216079D01*
X0011133Y0216099D01*
X0011273Y0216116D01*
X0011413Y0216129D01*
X0011554Y0216138D01*
X0011694Y0216143D01*
X0011835Y0216144D01*
X0011976Y0216141D01*
X0012117Y0216134D01*
X0012257Y0216123D01*
X0012397Y0216108D01*
X0012537Y0216089D01*
X0012676Y0216067D01*
X0012814Y0216040D01*
X0012952Y0216010D01*
X0013088Y0215975D01*
X0013224Y0215937D01*
X0013358Y0215895D01*
X0013492Y0215849D01*
X0013624Y0215800D01*
X0013754Y0215746D01*
X0013883Y0215689D01*
X0014010Y0215629D01*
X0014136Y0215565D01*
X0014259Y0215497D01*
X0014381Y0215426D01*
X0014501Y0215352D01*
X0014618Y0215274D01*
X0014733Y0215193D01*
X0014846Y0215109D01*
X0014957Y0215022D01*
X0015065Y0214931D01*
X0015170Y0214838D01*
X0015273Y0214741D01*
X0015373Y0214642D01*
X0015470Y0214540D01*
X0015564Y0214435D01*
X0015655Y0214328D01*
X0015743Y0214218D01*
X0015828Y0214106D01*
X0015910Y0213991D01*
X0015989Y0213874D01*
X0016064Y0213755D01*
X0016136Y0213634D01*
X0016204Y0213511D01*
X0016269Y0213386D01*
X0016331Y0213259D01*
X0016388Y0213130D01*
X0016443Y0213000D01*
X0016493Y0212869D01*
X0016540Y0212736D01*
X0016583Y0212602D01*
X0016622Y0212466D01*
X0016657Y0212330D01*
X0016689Y0212193D01*
X0016716Y0212055D01*
X0016740Y0211916D01*
X0016760Y0211776D01*
X0016776Y0211636D01*
X0016788Y0211496D01*
X0016796Y0211355D01*
X0016800Y0211214D01*
X0016800Y0211074D01*
X0016796Y0210933D01*
X0016788Y0210792D01*
X0016776Y0210652D01*
X0016760Y0210512D01*
X0016740Y0210372D01*
X0016716Y0210233D01*
X0016689Y0210095D01*
X0016657Y0209958D01*
X0016622Y0209822D01*
X0016583Y0209686D01*
X0016540Y0209552D01*
X0016493Y0209419D01*
X0016443Y0209288D01*
X0016388Y0209158D01*
X0016331Y0209029D01*
X0016269Y0208902D01*
X0016204Y0208777D01*
X0016136Y0208654D01*
X0016064Y0208533D01*
X0015989Y0208414D01*
X0015910Y0208297D01*
X0015828Y0208182D01*
X0015743Y0208070D01*
X0015655Y0207960D01*
X0015564Y0207853D01*
X0015470Y0207748D01*
X0015373Y0207646D01*
X0015273Y0207547D01*
X0015170Y0207450D01*
X0015065Y0207357D01*
X0014957Y0207266D01*
X0014846Y0207179D01*
X0014733Y0207095D01*
X0014618Y0207014D01*
X0014501Y0206936D01*
X0014381Y0206862D01*
X0014259Y0206791D01*
X0014136Y0206723D01*
X0014010Y0206659D01*
X0013883Y0206599D01*
X0013754Y0206542D01*
X0013624Y0206488D01*
X0013492Y0206439D01*
X0013358Y0206393D01*
X0013224Y0206351D01*
X0013088Y0206313D01*
X0012952Y0206278D01*
X0012814Y0206248D01*
X0012676Y0206221D01*
X0012537Y0206199D01*
X0012397Y0206180D01*
X0012257Y0206165D01*
X0012117Y0206154D01*
X0011976Y0206147D01*
X0011835Y0206144D01*
X0011694Y0206145D01*
X0011554Y0206150D01*
X0011413Y0206159D01*
X0011273Y0206172D01*
X0011133Y0206189D01*
X0010993Y0206209D01*
X0010855Y0206234D01*
X0010717Y0206263D01*
X0010580Y0206295D01*
X0010444Y0206331D01*
X0010309Y0206372D01*
X0010175Y0206416D01*
X0010042Y0206463D01*
X0009911Y0206515D01*
X0009781Y0206570D01*
X0009653Y0206628D01*
X0009527Y0206691D01*
X0009402Y0206756D01*
X0009280Y0206826D01*
X0009159Y0206898D01*
X0009040Y0206974D01*
X0008924Y0207054D01*
X0008810Y0207137D01*
X0008698Y0207222D01*
X0008589Y0207311D01*
X0008482Y0207403D01*
X0008378Y0207498D01*
X0008277Y0207596D01*
X0008178Y0207697D01*
X0008083Y0207800D01*
X0007990Y0207906D01*
X0007900Y0208015D01*
X0007814Y0208126D01*
X0007730Y0208239D01*
X0007650Y0208355D01*
X0007573Y0208473D01*
X0007500Y0208593D01*
X0007429Y0208716D01*
X0007363Y0208840D01*
X0007300Y0208966D01*
X0007240Y0209093D01*
X0007184Y0209222D01*
X0007132Y0209353D01*
X0007083Y0209485D01*
X0007038Y0209619D01*
X0006997Y0209754D01*
X0006960Y0209890D01*
X0006926Y0210026D01*
X0006897Y0210164D01*
X0006871Y0210303D01*
X0006850Y0210442D01*
X0006832Y0210582D01*
X0006818Y0210722D01*
X0006808Y0210862D01*
X0006802Y0211003D01*
X0006800Y0211144D01*
X0001800Y0211144D02*
X0001803Y0211386D01*
X0001812Y0211627D01*
X0001826Y0211868D01*
X0001847Y0212109D01*
X0001873Y0212349D01*
X0001905Y0212589D01*
X0001943Y0212828D01*
X0001986Y0213065D01*
X0002036Y0213302D01*
X0002091Y0213537D01*
X0002151Y0213771D01*
X0002218Y0214003D01*
X0002289Y0214234D01*
X0002367Y0214463D01*
X0002450Y0214690D01*
X0002538Y0214915D01*
X0002632Y0215138D01*
X0002731Y0215358D01*
X0002836Y0215576D01*
X0002945Y0215791D01*
X0003060Y0216004D01*
X0003180Y0216214D01*
X0003305Y0216420D01*
X0003435Y0216624D01*
X0003570Y0216825D01*
X0003710Y0217022D01*
X0003854Y0217216D01*
X0004003Y0217406D01*
X0004157Y0217592D01*
X0004315Y0217775D01*
X0004477Y0217954D01*
X0004644Y0218129D01*
X0004815Y0218300D01*
X0004990Y0218467D01*
X0005169Y0218629D01*
X0005352Y0218787D01*
X0005538Y0218941D01*
X0005728Y0219090D01*
X0005922Y0219234D01*
X0006119Y0219374D01*
X0006320Y0219509D01*
X0006524Y0219639D01*
X0006730Y0219764D01*
X0006940Y0219884D01*
X0007153Y0219999D01*
X0007368Y0220108D01*
X0007586Y0220213D01*
X0007806Y0220312D01*
X0008029Y0220406D01*
X0008254Y0220494D01*
X0008481Y0220577D01*
X0008710Y0220655D01*
X0008941Y0220726D01*
X0009173Y0220793D01*
X0009407Y0220853D01*
X0009642Y0220908D01*
X0009879Y0220958D01*
X0010116Y0221001D01*
X0010355Y0221039D01*
X0010595Y0221071D01*
X0010835Y0221097D01*
X0011076Y0221118D01*
X0011317Y0221132D01*
X0011558Y0221141D01*
X0011800Y0221144D01*
X0001800Y0211144D02*
X0001800Y0026144D01*
X0001802Y0026004D01*
X0001808Y0025864D01*
X0001818Y0025724D01*
X0001831Y0025584D01*
X0001849Y0025445D01*
X0001871Y0025306D01*
X0001896Y0025169D01*
X0001925Y0025031D01*
X0001958Y0024895D01*
X0001995Y0024760D01*
X0002036Y0024626D01*
X0002081Y0024493D01*
X0002129Y0024361D01*
X0002181Y0024231D01*
X0002236Y0024102D01*
X0002295Y0023975D01*
X0002358Y0023849D01*
X0002424Y0023725D01*
X0002493Y0023604D01*
X0002566Y0023484D01*
X0002643Y0023366D01*
X0002722Y0023251D01*
X0002805Y0023137D01*
X0002891Y0023027D01*
X0002980Y0022918D01*
X0003072Y0022812D01*
X0003167Y0022709D01*
X0003264Y0022608D01*
X0003365Y0022511D01*
X0003468Y0022416D01*
X0003574Y0022324D01*
X0003683Y0022235D01*
X0003793Y0022149D01*
X0003907Y0022066D01*
X0004022Y0021987D01*
X0004140Y0021910D01*
X0004260Y0021837D01*
X0004381Y0021768D01*
X0004505Y0021702D01*
X0004631Y0021639D01*
X0004758Y0021580D01*
X0004887Y0021525D01*
X0005017Y0021473D01*
X0005149Y0021425D01*
X0005282Y0021380D01*
X0005416Y0021339D01*
X0005551Y0021302D01*
X0005687Y0021269D01*
X0005825Y0021240D01*
X0005962Y0021215D01*
X0006101Y0021193D01*
X0006240Y0021175D01*
X0006380Y0021162D01*
X0006520Y0021152D01*
X0006660Y0021146D01*
X0006800Y0021144D01*
D11*
X0011129Y0080594D02*
X0011129Y0083497D01*
X0010162Y0083497D02*
X0012097Y0083497D01*
X0013108Y0082529D02*
X0013108Y0080594D01*
X0013108Y0082045D02*
X0015043Y0082045D01*
X0015043Y0082529D02*
X0015043Y0080594D01*
X0016055Y0081078D02*
X0016538Y0080594D01*
X0017990Y0080594D01*
X0017990Y0083497D01*
X0016538Y0083497D01*
X0016055Y0083013D01*
X0016055Y0082529D01*
X0016538Y0082045D01*
X0017990Y0082045D01*
X0016538Y0082045D02*
X0016055Y0081562D01*
X0016055Y0081078D01*
X0015043Y0082529D02*
X0014076Y0083497D01*
X0013108Y0082529D01*
X0013703Y0093794D02*
X0013703Y0096697D01*
X0011769Y0093794D01*
X0011769Y0096697D01*
X0013145Y0103094D02*
X0014597Y0103094D01*
X0014597Y0105997D01*
X0013145Y0105997D01*
X0012662Y0105513D01*
X0012662Y0105029D01*
X0013145Y0104545D01*
X0014597Y0104545D01*
X0015608Y0104062D02*
X0015608Y0103578D01*
X0016092Y0103094D01*
X0017059Y0103094D01*
X0017543Y0103578D01*
X0018555Y0103578D02*
X0018555Y0105997D01*
X0017543Y0105513D02*
X0017543Y0105029D01*
X0017059Y0104545D01*
X0016092Y0104545D01*
X0015608Y0104062D01*
X0015608Y0105513D02*
X0016092Y0105997D01*
X0017059Y0105997D01*
X0017543Y0105513D01*
X0018555Y0103578D02*
X0019038Y0103094D01*
X0020006Y0103094D01*
X0020490Y0103578D01*
X0020490Y0105997D01*
X0016650Y0113794D02*
X0014715Y0113794D01*
X0015683Y0113794D02*
X0015683Y0116697D01*
X0016650Y0115729D01*
X0013703Y0115245D02*
X0011769Y0115245D01*
X0012252Y0113794D02*
X0012252Y0116697D01*
X0013703Y0115245D01*
X0013703Y0123794D02*
X0011769Y0125729D01*
X0011769Y0126213D01*
X0012252Y0126697D01*
X0013220Y0126697D01*
X0013703Y0126213D01*
X0013703Y0123794D02*
X0011769Y0123794D01*
X0014715Y0123794D02*
X0016650Y0123794D01*
X0015683Y0123794D02*
X0015683Y0126697D01*
X0016650Y0125729D01*
X0016650Y0133794D02*
X0014715Y0133794D01*
X0015683Y0133794D02*
X0015683Y0136697D01*
X0016650Y0135729D01*
X0013703Y0136213D02*
X0013220Y0136697D01*
X0012252Y0136697D01*
X0011769Y0136213D01*
X0011769Y0135729D01*
X0012252Y0135245D01*
X0011769Y0134762D01*
X0011769Y0134278D01*
X0012252Y0133794D01*
X0013220Y0133794D01*
X0013703Y0134278D01*
X0012736Y0135245D02*
X0012252Y0135245D01*
X0012252Y0143794D02*
X0011769Y0144278D01*
X0011769Y0145245D01*
X0012252Y0145729D01*
X0012736Y0145729D01*
X0013703Y0145245D01*
X0013703Y0146697D01*
X0011769Y0146697D01*
X0012252Y0143794D02*
X0013220Y0143794D01*
X0013703Y0144278D01*
X0014715Y0143794D02*
X0016650Y0143794D01*
X0015683Y0143794D02*
X0015683Y0146697D01*
X0016650Y0145729D01*
X0013666Y0153794D02*
X0012699Y0153794D01*
X0012215Y0154278D01*
X0012215Y0156213D01*
X0014150Y0154278D01*
X0013666Y0153794D01*
X0014150Y0154278D02*
X0014150Y0156213D01*
X0013666Y0156697D01*
X0012699Y0156697D01*
X0012215Y0156213D01*
X0012252Y0163794D02*
X0011769Y0164278D01*
X0011769Y0164762D01*
X0012252Y0165245D01*
X0013703Y0165245D01*
X0013703Y0164278D01*
X0013220Y0163794D01*
X0012252Y0163794D01*
X0013703Y0165245D02*
X0012736Y0166213D01*
X0011769Y0166697D01*
X0014715Y0163794D02*
X0016650Y0163794D01*
X0015683Y0163794D02*
X0015683Y0166697D01*
X0016650Y0165729D01*
X0014150Y0176294D02*
X0012215Y0176294D01*
X0014150Y0176294D02*
X0012215Y0178229D01*
X0012215Y0178713D01*
X0012699Y0179197D01*
X0013666Y0179197D01*
X0014150Y0178713D01*
X0013822Y0178794D02*
X0015757Y0178794D01*
X0015757Y0181697D01*
X0016769Y0181213D02*
X0017252Y0181697D01*
X0018220Y0181697D01*
X0018703Y0181213D01*
X0018703Y0179278D01*
X0018220Y0178794D01*
X0017252Y0178794D01*
X0016769Y0179278D01*
X0018145Y0183094D02*
X0017662Y0183578D01*
X0017662Y0185513D01*
X0018145Y0185997D01*
X0019597Y0185997D01*
X0019597Y0183094D01*
X0018145Y0183094D01*
X0019715Y0181213D02*
X0020199Y0181697D01*
X0021166Y0181697D01*
X0021650Y0181213D01*
X0021650Y0180729D01*
X0021166Y0180245D01*
X0020199Y0180245D01*
X0019715Y0179762D01*
X0019715Y0179278D01*
X0020199Y0178794D01*
X0021166Y0178794D01*
X0021650Y0179278D01*
X0022543Y0183094D02*
X0022543Y0185997D01*
X0020608Y0183094D01*
X0020608Y0185997D01*
X0023555Y0185513D02*
X0024038Y0185997D01*
X0025006Y0185997D01*
X0025490Y0185513D01*
X0025490Y0183578D01*
X0025006Y0183094D01*
X0024038Y0183094D01*
X0023555Y0183578D01*
X0023555Y0184545D01*
X0024522Y0184545D01*
X0021166Y0198794D02*
X0020199Y0198794D01*
X0019715Y0199278D01*
X0019715Y0199762D01*
X0020199Y0200245D01*
X0021166Y0200245D01*
X0021650Y0200729D01*
X0021650Y0201213D01*
X0021166Y0201697D01*
X0020199Y0201697D01*
X0019715Y0201213D01*
X0021650Y0199278D02*
X0021166Y0198794D01*
X0018703Y0198794D02*
X0017252Y0198794D01*
X0016769Y0199278D01*
X0016769Y0201213D01*
X0017252Y0201697D01*
X0018703Y0201697D01*
X0018703Y0198794D01*
X0015757Y0198794D02*
X0015757Y0200729D01*
X0014789Y0201697D01*
X0013822Y0200729D01*
X0013822Y0198794D01*
X0014150Y0197745D02*
X0012215Y0197745D01*
X0012699Y0196294D02*
X0012699Y0199197D01*
X0014150Y0197745D01*
X0013822Y0200245D02*
X0015757Y0200245D01*
X0014150Y0186697D02*
X0012215Y0186697D01*
X0012699Y0185729D02*
X0012215Y0185245D01*
X0012215Y0184278D01*
X0012699Y0183794D01*
X0013666Y0183794D01*
X0014150Y0184278D01*
X0014150Y0185245D02*
X0013183Y0185729D01*
X0012699Y0185729D01*
X0014150Y0185245D02*
X0014150Y0186697D01*
X0037662Y0184545D02*
X0039597Y0184545D01*
X0040608Y0184062D02*
X0040608Y0185997D01*
X0040608Y0184062D02*
X0041576Y0183094D01*
X0042543Y0184062D01*
X0042543Y0185997D01*
X0038629Y0185513D02*
X0038629Y0183578D01*
X0050162Y0183094D02*
X0052097Y0185997D01*
X0053108Y0185513D02*
X0053108Y0184545D01*
X0053592Y0184062D01*
X0055043Y0184062D01*
X0054076Y0184062D02*
X0053108Y0183094D01*
X0052097Y0183094D02*
X0050162Y0185997D01*
X0053108Y0185513D02*
X0053592Y0185997D01*
X0055043Y0185997D01*
X0055043Y0183094D01*
X0060162Y0183094D02*
X0062097Y0185997D01*
X0063108Y0185997D02*
X0065043Y0185997D01*
X0064076Y0185997D02*
X0064076Y0183094D01*
X0062097Y0183094D02*
X0060162Y0185997D01*
X0070875Y0196778D02*
X0070875Y0198713D01*
X0071359Y0199197D01*
X0072810Y0199197D01*
X0072810Y0196294D01*
X0071359Y0196294D01*
X0070875Y0196778D01*
X0073822Y0197745D02*
X0074306Y0197262D01*
X0075757Y0197262D01*
X0075757Y0196294D02*
X0075757Y0199197D01*
X0074306Y0199197D01*
X0073822Y0198713D01*
X0073822Y0197745D01*
X0076769Y0197745D02*
X0078703Y0197745D01*
X0079715Y0196778D02*
X0080199Y0196294D01*
X0081166Y0196294D01*
X0081650Y0196778D01*
X0081650Y0198713D01*
X0081166Y0199197D01*
X0080199Y0199197D01*
X0079715Y0198713D01*
X0078703Y0199197D02*
X0078703Y0196294D01*
X0076769Y0196294D02*
X0076769Y0199197D01*
X0076769Y0186697D02*
X0078703Y0183794D01*
X0076769Y0183794D02*
X0078703Y0186697D01*
X0079715Y0186697D02*
X0081650Y0186697D01*
X0080683Y0186697D02*
X0080683Y0183794D01*
X0080199Y0179197D02*
X0079715Y0178713D01*
X0079715Y0177745D01*
X0080199Y0177262D01*
X0081650Y0177262D01*
X0080683Y0177262D02*
X0079715Y0176294D01*
X0078703Y0176294D02*
X0076769Y0179197D01*
X0078703Y0179197D02*
X0076769Y0176294D01*
X0080199Y0179197D02*
X0081650Y0179197D01*
X0081650Y0176294D01*
X0081650Y0169197D02*
X0080683Y0168229D01*
X0079715Y0169197D01*
X0079715Y0166294D01*
X0078703Y0166294D02*
X0077736Y0166294D01*
X0078220Y0166294D02*
X0078220Y0169197D01*
X0078703Y0169197D02*
X0077736Y0169197D01*
X0076739Y0168713D02*
X0076739Y0168229D01*
X0076255Y0167745D01*
X0075288Y0167745D01*
X0074804Y0167262D01*
X0074804Y0166778D01*
X0075288Y0166294D01*
X0076255Y0166294D01*
X0076739Y0166778D01*
X0076739Y0168713D02*
X0076255Y0169197D01*
X0075288Y0169197D01*
X0074804Y0168713D01*
X0073793Y0168713D02*
X0073793Y0166778D01*
X0073309Y0166294D01*
X0072341Y0166294D01*
X0071858Y0166778D01*
X0071858Y0168713D01*
X0072341Y0169197D01*
X0073309Y0169197D01*
X0073793Y0168713D01*
X0074306Y0156697D02*
X0073822Y0156213D01*
X0074306Y0156697D02*
X0075273Y0156697D01*
X0075757Y0156213D01*
X0075757Y0155729D01*
X0075273Y0155245D01*
X0074306Y0155245D01*
X0073822Y0154762D01*
X0073822Y0154278D01*
X0074306Y0153794D01*
X0075273Y0153794D01*
X0075757Y0154278D01*
X0076769Y0154278D02*
X0076769Y0156213D01*
X0077252Y0156697D01*
X0078220Y0156697D01*
X0078703Y0156213D01*
X0078703Y0154278D01*
X0078220Y0153794D01*
X0077252Y0153794D01*
X0076769Y0154278D01*
X0079715Y0153794D02*
X0079715Y0156697D01*
X0080683Y0155729D01*
X0081650Y0156697D01*
X0081650Y0153794D01*
X0081166Y0144197D02*
X0080199Y0144197D01*
X0079715Y0143713D01*
X0078703Y0143713D02*
X0078703Y0141778D01*
X0078220Y0141294D01*
X0077252Y0141294D01*
X0076769Y0141778D01*
X0076769Y0143713D02*
X0077252Y0144197D01*
X0078220Y0144197D01*
X0078703Y0143713D01*
X0079715Y0142262D02*
X0079715Y0141778D01*
X0080199Y0141294D01*
X0081166Y0141294D01*
X0081650Y0141778D01*
X0081166Y0142745D02*
X0080199Y0142745D01*
X0079715Y0142262D01*
X0081166Y0142745D02*
X0081650Y0143229D01*
X0081650Y0143713D01*
X0081166Y0144197D01*
X0081650Y0136697D02*
X0079715Y0133794D01*
X0079715Y0136697D01*
X0078703Y0136213D02*
X0078703Y0134278D01*
X0078220Y0133794D01*
X0077252Y0133794D01*
X0076769Y0134278D01*
X0076769Y0136213D02*
X0077252Y0136697D01*
X0078220Y0136697D01*
X0078703Y0136213D01*
X0081650Y0136697D02*
X0081650Y0133794D01*
X0081650Y0126697D02*
X0079715Y0123794D01*
X0079715Y0126697D01*
X0078703Y0126213D02*
X0078703Y0124278D01*
X0078220Y0123794D01*
X0077252Y0123794D01*
X0076769Y0124278D01*
X0076769Y0126213D02*
X0077252Y0126697D01*
X0078220Y0126697D01*
X0078703Y0126213D01*
X0081650Y0126697D02*
X0081650Y0123794D01*
X0081650Y0116697D02*
X0079715Y0113794D01*
X0079715Y0116697D01*
X0078703Y0116213D02*
X0078703Y0114278D01*
X0078220Y0113794D01*
X0077252Y0113794D01*
X0076769Y0114278D01*
X0076769Y0116213D02*
X0077252Y0116697D01*
X0078220Y0116697D01*
X0078703Y0116213D01*
X0081650Y0116697D02*
X0081650Y0113794D01*
X0081650Y0106697D02*
X0079715Y0103794D01*
X0079715Y0106697D01*
X0078703Y0106213D02*
X0078703Y0104278D01*
X0078220Y0103794D01*
X0077252Y0103794D01*
X0076769Y0104278D01*
X0076769Y0106213D02*
X0077252Y0106697D01*
X0078220Y0106697D01*
X0078703Y0106213D01*
X0081650Y0106697D02*
X0081650Y0103794D01*
X0081650Y0096697D02*
X0079715Y0093794D01*
X0079715Y0096697D01*
X0078703Y0096213D02*
X0078703Y0094278D01*
X0078220Y0093794D01*
X0077252Y0093794D01*
X0076769Y0094278D01*
X0076769Y0096213D02*
X0077252Y0096697D01*
X0078220Y0096697D01*
X0078703Y0096213D01*
X0081650Y0096697D02*
X0081650Y0093794D01*
X0080683Y0086697D02*
X0079715Y0085729D01*
X0079715Y0083794D01*
X0078703Y0083794D02*
X0078703Y0086697D01*
X0077252Y0086697D01*
X0076769Y0086213D01*
X0076769Y0084278D01*
X0077252Y0083794D01*
X0078703Y0083794D01*
X0079715Y0085245D02*
X0081650Y0085245D01*
X0081650Y0085729D02*
X0080683Y0086697D01*
X0081650Y0085729D02*
X0081650Y0083794D01*
X0081166Y0076697D02*
X0080199Y0076697D01*
X0079715Y0076213D01*
X0079715Y0075245D02*
X0080683Y0075245D01*
X0079715Y0075245D02*
X0079715Y0074278D01*
X0080199Y0073794D01*
X0081166Y0073794D01*
X0081650Y0074278D01*
X0081650Y0076213D01*
X0081166Y0076697D01*
X0078703Y0076697D02*
X0078703Y0073794D01*
X0076769Y0073794D02*
X0078703Y0076697D01*
X0076769Y0076697D02*
X0076769Y0073794D01*
X0075757Y0073794D02*
X0074306Y0073794D01*
X0073822Y0074278D01*
X0073822Y0076213D01*
X0074306Y0076697D01*
X0075757Y0076697D01*
X0075757Y0073794D01*
X0077252Y0066697D02*
X0078220Y0066697D01*
X0078703Y0066213D01*
X0078703Y0064278D01*
X0078220Y0063794D01*
X0077252Y0063794D01*
X0076769Y0064278D01*
X0076769Y0066213D02*
X0077252Y0066697D01*
X0079715Y0066697D02*
X0079715Y0063794D01*
X0081650Y0066697D01*
X0081650Y0063794D01*
X0081166Y0056697D02*
X0080199Y0056697D01*
X0079715Y0056213D01*
X0079715Y0055729D01*
X0080199Y0055245D01*
X0079715Y0054762D01*
X0079715Y0054278D01*
X0080199Y0053794D01*
X0081166Y0053794D01*
X0081650Y0054278D01*
X0080683Y0055245D02*
X0080199Y0055245D01*
X0078703Y0054762D02*
X0077736Y0053794D01*
X0076769Y0054762D01*
X0076769Y0056697D01*
X0078703Y0056697D02*
X0078703Y0054762D01*
X0081166Y0056697D02*
X0081650Y0056213D01*
X0081650Y0046697D02*
X0080199Y0046697D01*
X0079715Y0046213D01*
X0079715Y0045245D01*
X0080199Y0044762D01*
X0081650Y0044762D01*
X0080683Y0044762D02*
X0079715Y0043794D01*
X0078703Y0044278D02*
X0078220Y0043794D01*
X0077252Y0043794D01*
X0076769Y0044278D01*
X0076769Y0044762D01*
X0077252Y0045245D01*
X0078220Y0045245D01*
X0078703Y0045729D01*
X0078703Y0046213D01*
X0078220Y0046697D01*
X0077252Y0046697D01*
X0076769Y0046213D01*
X0075757Y0046697D02*
X0073822Y0046697D01*
X0074789Y0046697D02*
X0074789Y0043794D01*
X0081650Y0043794D02*
X0081650Y0046697D01*
X0075273Y0083794D02*
X0074306Y0083794D01*
X0073822Y0084278D01*
X0073822Y0086213D02*
X0074306Y0086697D01*
X0075273Y0086697D01*
X0075757Y0086213D01*
X0075757Y0084278D01*
X0075273Y0083794D01*
X0075757Y0141294D02*
X0075757Y0144197D01*
X0075273Y0142745D02*
X0073822Y0141294D01*
X0075757Y0142262D02*
X0073822Y0144197D01*
X0072810Y0153794D02*
X0071843Y0153794D01*
X0072327Y0153794D02*
X0072327Y0156697D01*
X0072810Y0156697D02*
X0071843Y0156697D01*
X0081650Y0166294D02*
X0081650Y0169197D01*
X0044153Y0137580D02*
X0043536Y0136345D01*
X0042302Y0135111D01*
X0042302Y0136962D01*
X0041684Y0137580D01*
X0041067Y0137580D01*
X0040450Y0136962D01*
X0040450Y0135728D01*
X0041067Y0135111D01*
X0042302Y0135111D01*
X0044153Y0132662D02*
X0042919Y0131428D01*
X0043536Y0130213D02*
X0041067Y0127745D01*
X0040450Y0128362D01*
X0040450Y0129596D01*
X0041067Y0130213D01*
X0043536Y0130213D01*
X0044153Y0129596D01*
X0044153Y0128362D01*
X0043536Y0127745D01*
X0041067Y0127745D01*
X0040450Y0126530D02*
X0040450Y0124061D01*
X0042919Y0126530D01*
X0043536Y0126530D01*
X0044153Y0125913D01*
X0044153Y0124679D01*
X0043536Y0124061D01*
X0042302Y0122847D02*
X0042302Y0120378D01*
X0042919Y0119164D02*
X0039833Y0119164D01*
X0039216Y0118547D01*
X0039216Y0117930D01*
X0040450Y0117312D02*
X0041067Y0116695D01*
X0042919Y0116695D01*
X0042302Y0115481D02*
X0040450Y0115481D01*
X0040450Y0113629D01*
X0041067Y0113012D01*
X0041684Y0113629D01*
X0041684Y0115481D01*
X0042302Y0115481D02*
X0042919Y0114864D01*
X0042919Y0113629D01*
X0044153Y0111798D02*
X0042919Y0110563D01*
X0044153Y0109329D01*
X0040450Y0109329D01*
X0040450Y0111798D02*
X0044153Y0111798D01*
X0042302Y0108115D02*
X0042302Y0105646D01*
X0042302Y0104431D02*
X0041067Y0104431D01*
X0040450Y0103814D01*
X0040450Y0102580D01*
X0041067Y0101963D01*
X0042302Y0101963D02*
X0042919Y0103197D01*
X0042919Y0103814D01*
X0042302Y0104431D01*
X0042302Y0101963D02*
X0044153Y0101963D01*
X0044153Y0104431D01*
X0040450Y0097065D02*
X0040450Y0094596D01*
X0040450Y0093372D02*
X0040450Y0092755D01*
X0041067Y0092755D01*
X0041067Y0093372D01*
X0040450Y0093372D01*
X0040450Y0091540D02*
X0040450Y0089072D01*
X0040450Y0090306D02*
X0044153Y0090306D01*
X0042919Y0089072D01*
X0042919Y0087857D02*
X0040450Y0086623D01*
X0042919Y0085388D01*
X0042919Y0094596D02*
X0044153Y0095831D01*
X0040450Y0095831D01*
X0031653Y0095690D02*
X0027950Y0095690D01*
X0028567Y0094476D02*
X0027950Y0093859D01*
X0027950Y0092624D01*
X0028567Y0092007D01*
X0029802Y0092624D02*
X0029802Y0093859D01*
X0029184Y0094476D01*
X0028567Y0094476D01*
X0029802Y0095690D02*
X0030419Y0096308D01*
X0030419Y0097542D01*
X0029802Y0098159D01*
X0027950Y0098159D01*
X0028567Y0099373D02*
X0027950Y0099991D01*
X0027950Y0101842D01*
X0030419Y0101842D01*
X0030419Y0103057D02*
X0030419Y0104908D01*
X0029802Y0105525D01*
X0027950Y0105525D01*
X0028567Y0106740D02*
X0027950Y0107357D01*
X0027950Y0109209D01*
X0027333Y0109209D02*
X0026716Y0108591D01*
X0026716Y0107974D01*
X0027333Y0109209D02*
X0030419Y0109209D01*
X0030419Y0111040D02*
X0030419Y0112274D01*
X0029802Y0112892D01*
X0027950Y0112892D01*
X0027950Y0111040D01*
X0028567Y0110423D01*
X0029184Y0111040D01*
X0029184Y0112892D01*
X0028567Y0117789D02*
X0027950Y0118406D01*
X0027950Y0119641D01*
X0028567Y0120258D01*
X0029184Y0120258D01*
X0029802Y0119641D01*
X0029802Y0118406D01*
X0030419Y0117789D01*
X0031036Y0117789D01*
X0031653Y0118406D01*
X0031653Y0119641D01*
X0031036Y0120258D01*
X0030419Y0122090D02*
X0030419Y0123324D01*
X0029802Y0123941D01*
X0027950Y0123941D01*
X0027950Y0122090D01*
X0028567Y0121472D01*
X0029184Y0122090D01*
X0029184Y0123941D01*
X0030419Y0125155D02*
X0030419Y0126390D01*
X0031036Y0125773D02*
X0028567Y0125773D01*
X0027950Y0126390D01*
X0028567Y0127611D02*
X0027950Y0128228D01*
X0027950Y0129462D01*
X0028567Y0130080D01*
X0029802Y0130080D01*
X0030419Y0129462D01*
X0030419Y0128228D01*
X0029802Y0127611D01*
X0028567Y0127611D01*
X0028567Y0106740D02*
X0030419Y0106740D01*
X0030419Y0103057D02*
X0027950Y0103057D01*
X0028567Y0099373D02*
X0030419Y0099373D01*
X0031036Y0094476D02*
X0031653Y0093859D01*
X0031653Y0092624D01*
X0031036Y0092007D01*
X0030419Y0092007D01*
X0029802Y0092624D01*
X0040450Y0117312D02*
X0040450Y0119164D01*
X0040450Y0131428D02*
X0040450Y0133897D01*
X0040450Y0132662D02*
X0044153Y0132662D01*
X0016650Y0096697D02*
X0016650Y0093794D01*
X0014715Y0093794D01*
X0015683Y0095245D02*
X0016650Y0095245D01*
X0016650Y0096697D02*
X0014715Y0096697D01*
X0013145Y0103094D02*
X0012662Y0103578D01*
X0012662Y0104062D01*
X0013145Y0104545D01*
D12*
X0008650Y0041482D02*
X0008650Y0039748D01*
X0008650Y0040615D02*
X0011252Y0040615D01*
X0010385Y0039748D01*
X0011252Y0038536D02*
X0008650Y0038536D01*
X0011252Y0036801D01*
X0008650Y0036801D01*
X0009084Y0035589D02*
X0008650Y0035156D01*
X0008650Y0034288D01*
X0009084Y0033855D01*
X0010819Y0033855D01*
X0011252Y0034288D01*
X0011252Y0035156D01*
X0010819Y0035589D01*
X0052100Y0038944D02*
X0058505Y0038944D01*
X0058505Y0043214D01*
X0055303Y0045390D02*
X0056370Y0046457D01*
X0056370Y0048592D01*
X0055303Y0049660D01*
X0054235Y0049660D01*
X0054235Y0045390D01*
X0053168Y0045390D02*
X0055303Y0045390D01*
X0055303Y0041079D02*
X0055303Y0038944D01*
X0053168Y0045390D02*
X0052100Y0046457D01*
X0052100Y0048592D01*
X0053168Y0051835D02*
X0054235Y0052903D01*
X0054235Y0056105D01*
X0053168Y0059348D02*
X0052100Y0060416D01*
X0053168Y0059348D02*
X0057438Y0059348D01*
X0056370Y0058281D02*
X0056370Y0060416D01*
X0055303Y0062578D02*
X0056370Y0063645D01*
X0056370Y0065780D01*
X0055303Y0066848D01*
X0052100Y0066848D01*
X0053168Y0069023D02*
X0052100Y0070091D01*
X0052100Y0072226D01*
X0052100Y0075469D02*
X0056370Y0075469D01*
X0056370Y0077604D02*
X0056370Y0078671D01*
X0056370Y0077604D02*
X0054235Y0075469D01*
X0054235Y0073293D02*
X0054235Y0069023D01*
X0053168Y0069023D02*
X0055303Y0069023D01*
X0056370Y0070091D01*
X0056370Y0072226D01*
X0055303Y0073293D01*
X0054235Y0073293D01*
X0055303Y0080840D02*
X0055303Y0085110D01*
X0056370Y0091582D02*
X0056370Y0092650D01*
X0052100Y0092650D01*
X0052100Y0093717D02*
X0052100Y0091582D01*
X0052100Y0089420D02*
X0052100Y0087285D01*
X0052100Y0088353D02*
X0058505Y0088353D01*
X0058505Y0087285D01*
X0058505Y0092650D02*
X0059573Y0092650D01*
X0058505Y0095879D02*
X0052100Y0095879D01*
X0054235Y0095879D02*
X0052100Y0099082D01*
X0053168Y0101251D02*
X0052100Y0102318D01*
X0052100Y0104453D01*
X0053168Y0101251D02*
X0055303Y0101251D01*
X0056370Y0102318D01*
X0056370Y0104453D01*
X0055303Y0105521D01*
X0054235Y0105521D01*
X0054235Y0101251D01*
X0056370Y0099082D02*
X0054235Y0095879D01*
X0055303Y0114142D02*
X0055303Y0118412D01*
X0055303Y0120587D02*
X0055303Y0124857D01*
X0056370Y0124857D02*
X0052100Y0124857D01*
X0052100Y0127033D02*
X0058505Y0127033D01*
X0052100Y0131303D01*
X0058505Y0131303D01*
X0058505Y0133478D02*
X0052100Y0133478D01*
X0052100Y0137748D01*
X0055303Y0135613D02*
X0055303Y0133478D01*
X0058505Y0133478D02*
X0058505Y0137748D01*
X0062600Y0137755D02*
X0062600Y0135620D01*
X0063668Y0134552D01*
X0065803Y0134552D01*
X0066870Y0135620D01*
X0066870Y0137755D01*
X0065803Y0138823D01*
X0063668Y0138823D01*
X0062600Y0137755D01*
X0065803Y0140998D02*
X0065803Y0145268D01*
X0069005Y0147443D02*
X0066870Y0149578D01*
X0069005Y0151714D01*
X0062600Y0151714D01*
X0062600Y0153889D02*
X0062600Y0156024D01*
X0062600Y0154956D02*
X0066870Y0154956D01*
X0066870Y0153889D01*
X0069005Y0154956D02*
X0070073Y0154956D01*
X0066870Y0158186D02*
X0066870Y0161389D01*
X0065803Y0162456D01*
X0062600Y0162456D01*
X0062600Y0164631D02*
X0062600Y0166766D01*
X0062600Y0165699D02*
X0066870Y0165699D01*
X0066870Y0164631D01*
X0069005Y0165699D02*
X0070073Y0165699D01*
X0066870Y0158186D02*
X0062600Y0158186D01*
X0062600Y0147443D02*
X0069005Y0147443D01*
X0066870Y0132384D02*
X0066870Y0131316D01*
X0064735Y0129181D01*
X0065803Y0127006D02*
X0064735Y0125938D01*
X0064735Y0122736D01*
X0065803Y0120560D02*
X0065803Y0116290D01*
X0066870Y0114115D02*
X0067938Y0114115D01*
X0069005Y0113047D01*
X0069005Y0110912D01*
X0067938Y0109845D01*
X0067938Y0107669D02*
X0063668Y0103399D01*
X0062600Y0104467D01*
X0062600Y0106602D01*
X0063668Y0107669D01*
X0067938Y0107669D01*
X0069005Y0106602D01*
X0069005Y0104467D01*
X0067938Y0103399D01*
X0063668Y0103399D01*
X0065803Y0101224D02*
X0065803Y0096954D01*
X0069005Y0094778D02*
X0066870Y0092643D01*
X0069005Y0090508D01*
X0062600Y0090508D01*
X0063668Y0088333D02*
X0062600Y0087265D01*
X0062600Y0085130D01*
X0063668Y0084063D01*
X0067938Y0084063D01*
X0069005Y0085130D01*
X0069005Y0087265D01*
X0067938Y0088333D01*
X0063668Y0088333D01*
X0063668Y0081887D02*
X0062600Y0080820D01*
X0062600Y0078685D01*
X0063668Y0077617D01*
X0067938Y0077617D01*
X0069005Y0078685D01*
X0069005Y0080820D01*
X0067938Y0081887D01*
X0063668Y0081887D01*
X0062600Y0075442D02*
X0064735Y0073307D01*
X0064735Y0074374D02*
X0064735Y0071172D01*
X0064735Y0074374D02*
X0065803Y0075442D01*
X0067938Y0075442D01*
X0069005Y0074374D01*
X0069005Y0071172D01*
X0062600Y0071172D01*
X0062600Y0068996D02*
X0069005Y0068996D01*
X0069005Y0064726D02*
X0062600Y0064726D01*
X0064735Y0066861D01*
X0062600Y0068996D01*
X0065803Y0062551D02*
X0065803Y0058281D01*
X0065803Y0056105D02*
X0064735Y0055038D01*
X0064735Y0051835D01*
X0064735Y0049660D02*
X0063668Y0049660D01*
X0062600Y0048592D01*
X0062600Y0046457D01*
X0063668Y0045390D01*
X0065803Y0046457D02*
X0065803Y0048592D01*
X0064735Y0049660D01*
X0065803Y0046457D02*
X0066870Y0045390D01*
X0067938Y0045390D01*
X0069005Y0046457D01*
X0069005Y0048592D01*
X0067938Y0049660D01*
X0069005Y0051835D02*
X0069005Y0055038D01*
X0067938Y0056105D01*
X0065803Y0056105D01*
X0062600Y0051835D02*
X0069005Y0051835D01*
X0069005Y0043214D02*
X0069005Y0038944D01*
X0062600Y0038944D01*
X0062600Y0043214D01*
X0065803Y0041079D02*
X0065803Y0038944D01*
X0056370Y0052903D02*
X0056370Y0055038D01*
X0055303Y0056105D01*
X0052100Y0056105D01*
X0052100Y0052903D01*
X0053168Y0051835D01*
X0052100Y0062578D02*
X0058505Y0062578D01*
X0062600Y0094778D02*
X0069005Y0094778D01*
X0062600Y0109845D02*
X0066870Y0114115D01*
X0069005Y0122736D02*
X0069005Y0125938D01*
X0067938Y0127006D01*
X0065803Y0127006D01*
X0066870Y0129181D02*
X0062600Y0129181D01*
X0062600Y0122736D02*
X0069005Y0122736D01*
X0062600Y0114115D02*
X0062600Y0109845D01*
X0058505Y0114142D02*
X0052100Y0114142D01*
X0052100Y0118412D02*
X0058505Y0118412D01*
X0056370Y0120587D02*
X0058505Y0122722D01*
X0056370Y0124857D01*
X0056370Y0120587D02*
X0052100Y0120587D01*
D13*
X0053424Y0203703D02*
X0053426Y0203773D01*
X0053432Y0203843D01*
X0053442Y0203912D01*
X0053455Y0203981D01*
X0053473Y0204049D01*
X0053494Y0204116D01*
X0053519Y0204181D01*
X0053548Y0204245D01*
X0053580Y0204308D01*
X0053616Y0204368D01*
X0053655Y0204426D01*
X0053697Y0204482D01*
X0053742Y0204536D01*
X0053790Y0204587D01*
X0053841Y0204635D01*
X0053895Y0204680D01*
X0053951Y0204722D01*
X0054009Y0204761D01*
X0054069Y0204797D01*
X0054132Y0204829D01*
X0054196Y0204858D01*
X0054261Y0204883D01*
X0054328Y0204904D01*
X0054396Y0204922D01*
X0054465Y0204935D01*
X0054534Y0204945D01*
X0054604Y0204951D01*
X0054674Y0204953D01*
X0054744Y0204951D01*
X0054814Y0204945D01*
X0054883Y0204935D01*
X0054952Y0204922D01*
X0055020Y0204904D01*
X0055087Y0204883D01*
X0055152Y0204858D01*
X0055216Y0204829D01*
X0055279Y0204797D01*
X0055339Y0204761D01*
X0055397Y0204722D01*
X0055453Y0204680D01*
X0055507Y0204635D01*
X0055558Y0204587D01*
X0055606Y0204536D01*
X0055651Y0204482D01*
X0055693Y0204426D01*
X0055732Y0204368D01*
X0055768Y0204308D01*
X0055800Y0204245D01*
X0055829Y0204181D01*
X0055854Y0204116D01*
X0055875Y0204049D01*
X0055893Y0203981D01*
X0055906Y0203912D01*
X0055916Y0203843D01*
X0055922Y0203773D01*
X0055924Y0203703D01*
X0055922Y0203633D01*
X0055916Y0203563D01*
X0055906Y0203494D01*
X0055893Y0203425D01*
X0055875Y0203357D01*
X0055854Y0203290D01*
X0055829Y0203225D01*
X0055800Y0203161D01*
X0055768Y0203098D01*
X0055732Y0203038D01*
X0055693Y0202980D01*
X0055651Y0202924D01*
X0055606Y0202870D01*
X0055558Y0202819D01*
X0055507Y0202771D01*
X0055453Y0202726D01*
X0055397Y0202684D01*
X0055339Y0202645D01*
X0055279Y0202609D01*
X0055216Y0202577D01*
X0055152Y0202548D01*
X0055087Y0202523D01*
X0055020Y0202502D01*
X0054952Y0202484D01*
X0054883Y0202471D01*
X0054814Y0202461D01*
X0054744Y0202455D01*
X0054674Y0202453D01*
X0054604Y0202455D01*
X0054534Y0202461D01*
X0054465Y0202471D01*
X0054396Y0202484D01*
X0054328Y0202502D01*
X0054261Y0202523D01*
X0054196Y0202548D01*
X0054132Y0202577D01*
X0054069Y0202609D01*
X0054009Y0202645D01*
X0053951Y0202684D01*
X0053895Y0202726D01*
X0053841Y0202771D01*
X0053790Y0202819D01*
X0053742Y0202870D01*
X0053697Y0202924D01*
X0053655Y0202980D01*
X0053616Y0203038D01*
X0053580Y0203098D01*
X0053548Y0203161D01*
X0053519Y0203225D01*
X0053494Y0203290D01*
X0053473Y0203357D01*
X0053455Y0203425D01*
X0053442Y0203494D01*
X0053432Y0203563D01*
X0053426Y0203633D01*
X0053424Y0203703D01*
X0037676Y0203703D02*
X0037678Y0203773D01*
X0037684Y0203843D01*
X0037694Y0203912D01*
X0037707Y0203981D01*
X0037725Y0204049D01*
X0037746Y0204116D01*
X0037771Y0204181D01*
X0037800Y0204245D01*
X0037832Y0204308D01*
X0037868Y0204368D01*
X0037907Y0204426D01*
X0037949Y0204482D01*
X0037994Y0204536D01*
X0038042Y0204587D01*
X0038093Y0204635D01*
X0038147Y0204680D01*
X0038203Y0204722D01*
X0038261Y0204761D01*
X0038321Y0204797D01*
X0038384Y0204829D01*
X0038448Y0204858D01*
X0038513Y0204883D01*
X0038580Y0204904D01*
X0038648Y0204922D01*
X0038717Y0204935D01*
X0038786Y0204945D01*
X0038856Y0204951D01*
X0038926Y0204953D01*
X0038996Y0204951D01*
X0039066Y0204945D01*
X0039135Y0204935D01*
X0039204Y0204922D01*
X0039272Y0204904D01*
X0039339Y0204883D01*
X0039404Y0204858D01*
X0039468Y0204829D01*
X0039531Y0204797D01*
X0039591Y0204761D01*
X0039649Y0204722D01*
X0039705Y0204680D01*
X0039759Y0204635D01*
X0039810Y0204587D01*
X0039858Y0204536D01*
X0039903Y0204482D01*
X0039945Y0204426D01*
X0039984Y0204368D01*
X0040020Y0204308D01*
X0040052Y0204245D01*
X0040081Y0204181D01*
X0040106Y0204116D01*
X0040127Y0204049D01*
X0040145Y0203981D01*
X0040158Y0203912D01*
X0040168Y0203843D01*
X0040174Y0203773D01*
X0040176Y0203703D01*
X0040174Y0203633D01*
X0040168Y0203563D01*
X0040158Y0203494D01*
X0040145Y0203425D01*
X0040127Y0203357D01*
X0040106Y0203290D01*
X0040081Y0203225D01*
X0040052Y0203161D01*
X0040020Y0203098D01*
X0039984Y0203038D01*
X0039945Y0202980D01*
X0039903Y0202924D01*
X0039858Y0202870D01*
X0039810Y0202819D01*
X0039759Y0202771D01*
X0039705Y0202726D01*
X0039649Y0202684D01*
X0039591Y0202645D01*
X0039531Y0202609D01*
X0039468Y0202577D01*
X0039404Y0202548D01*
X0039339Y0202523D01*
X0039272Y0202502D01*
X0039204Y0202484D01*
X0039135Y0202471D01*
X0039066Y0202461D01*
X0038996Y0202455D01*
X0038926Y0202453D01*
X0038856Y0202455D01*
X0038786Y0202461D01*
X0038717Y0202471D01*
X0038648Y0202484D01*
X0038580Y0202502D01*
X0038513Y0202523D01*
X0038448Y0202548D01*
X0038384Y0202577D01*
X0038321Y0202609D01*
X0038261Y0202645D01*
X0038203Y0202684D01*
X0038147Y0202726D01*
X0038093Y0202771D01*
X0038042Y0202819D01*
X0037994Y0202870D01*
X0037949Y0202924D01*
X0037907Y0202980D01*
X0037868Y0203038D01*
X0037832Y0203098D01*
X0037800Y0203161D01*
X0037771Y0203225D01*
X0037746Y0203290D01*
X0037725Y0203357D01*
X0037707Y0203425D01*
X0037694Y0203494D01*
X0037684Y0203563D01*
X0037678Y0203633D01*
X0037676Y0203703D01*
D14*
X0034517Y0076892D02*
X0018769Y0076892D01*
X0024674Y0073546D02*
X0024674Y0068034D01*
X0024674Y0073546D02*
X0034517Y0073546D01*
X0034517Y0076892D01*
X0024674Y0054254D02*
X0024674Y0048743D01*
X0034517Y0048743D01*
X0034517Y0045396D01*
X0018769Y0045396D01*
X0004989Y0052286D02*
X0004989Y0070002D01*
M02*
