%
M48
M72
T01C0.02000
T02C0.02362
T03C0.02500
T04C0.03937
T05C0.04000
%
T01
X59500Y213644
X34100Y213644
T02
X71800Y53644
X66800Y51144
X64300Y43644
X64300Y36144
X61800Y31144
X69300Y36144
X54300Y73644
X51800Y63644
X51800Y53644
X41800Y36144
X26800Y26144
X16800Y41144
X14300Y58644
X24300Y73644
X26800Y78644
X21800Y83644
X16800Y91144
X14300Y86144
X21800Y101144
X34300Y86144
X36800Y81144
X34300Y76144
X49300Y83644
X51800Y98644
X46800Y121144
X46800Y141144
X46800Y146144
X44300Y153644
X49300Y171144
X46800Y186144
X34300Y166144
X36800Y161144
X36800Y151144
X36800Y136144
X21800Y153644
X21800Y166144
X14300Y178644
X11800Y171144
X14300Y191144
X61800Y166144
X66800Y148644
X66800Y138644
X69300Y131144
X74300Y146144
X76800Y163644
X76800Y108644
X71800Y86144
X76800Y81144
T03
X54674Y203703
X38926Y203703
T04
X86800Y46144
X86800Y56144
X86800Y66144
X86800Y76144
X86800Y86144
X86800Y96144
X86800Y106144
X86800Y116144
X86800Y126144
X86800Y136144
X86800Y146144
X86800Y156144
X86800Y166144
X86800Y176144
X86800Y186144
X86800Y196144
X71800Y191144
X61800Y191144
X51800Y191144
X41800Y191144
X31800Y191144
X21800Y191144
T05
X6800Y196144
X6800Y186144
X6800Y176144
X6800Y166144
X6800Y156144
X6800Y146144
X6800Y136144
X6800Y126144
X6800Y116144
X6800Y106144
X6800Y96144
X6800Y86144
M30
