G75*
%MOIN*%
%OFA0B0*%
%FSLAX25Y25*%
%IPPOS*%
%LPD*%
%AMOC8*
5,1,8,0,0,1.08239X$1,22.5*
%
%ADD10C,0.01000*%
%ADD11R,0.05846X0.03543*%
%ADD12C,0.07000*%
%ADD13R,0.04882X0.05906*%
%ADD14R,0.02165X0.04724*%
%ADD15R,0.05906X0.04882*%
%ADD16R,0.03150X0.05315*%
%ADD17R,0.05512X0.05512*%
%ADD18R,0.03937X0.03543*%
%ADD19R,0.04724X0.04724*%
%ADD20C,0.04000*%
%ADD21C,0.00750*%
%ADD22C,0.02750*%
%ADD23C,0.02953*%
%ADD24C,0.00000*%
%ADD25C,0.06600*%
%ADD26C,0.01600*%
%ADD27C,0.03562*%
D10*
X0006800Y0021144D02*
X0086800Y0021144D01*
X0086940Y0021146D01*
X0087080Y0021152D01*
X0087220Y0021162D01*
X0087360Y0021175D01*
X0087499Y0021193D01*
X0087638Y0021215D01*
X0087775Y0021240D01*
X0087913Y0021269D01*
X0088049Y0021302D01*
X0088184Y0021339D01*
X0088318Y0021380D01*
X0088451Y0021425D01*
X0088583Y0021473D01*
X0088713Y0021525D01*
X0088842Y0021580D01*
X0088969Y0021639D01*
X0089095Y0021702D01*
X0089219Y0021768D01*
X0089340Y0021837D01*
X0089460Y0021910D01*
X0089578Y0021987D01*
X0089693Y0022066D01*
X0089807Y0022149D01*
X0089917Y0022235D01*
X0090026Y0022324D01*
X0090132Y0022416D01*
X0090235Y0022511D01*
X0090336Y0022608D01*
X0090433Y0022709D01*
X0090528Y0022812D01*
X0090620Y0022918D01*
X0090709Y0023027D01*
X0090795Y0023137D01*
X0090878Y0023251D01*
X0090957Y0023366D01*
X0091034Y0023484D01*
X0091107Y0023604D01*
X0091176Y0023725D01*
X0091242Y0023849D01*
X0091305Y0023975D01*
X0091364Y0024102D01*
X0091419Y0024231D01*
X0091471Y0024361D01*
X0091519Y0024493D01*
X0091564Y0024626D01*
X0091605Y0024760D01*
X0091642Y0024895D01*
X0091675Y0025031D01*
X0091704Y0025169D01*
X0091729Y0025306D01*
X0091751Y0025445D01*
X0091769Y0025584D01*
X0091782Y0025724D01*
X0091792Y0025864D01*
X0091798Y0026004D01*
X0091800Y0026144D01*
X0091800Y0211144D01*
X0076800Y0211144D02*
X0076802Y0211285D01*
X0076808Y0211426D01*
X0076818Y0211566D01*
X0076832Y0211706D01*
X0076850Y0211846D01*
X0076871Y0211985D01*
X0076897Y0212124D01*
X0076926Y0212262D01*
X0076960Y0212398D01*
X0076997Y0212534D01*
X0077038Y0212669D01*
X0077083Y0212803D01*
X0077132Y0212935D01*
X0077184Y0213066D01*
X0077240Y0213195D01*
X0077300Y0213322D01*
X0077363Y0213448D01*
X0077429Y0213572D01*
X0077500Y0213695D01*
X0077573Y0213815D01*
X0077650Y0213933D01*
X0077730Y0214049D01*
X0077814Y0214162D01*
X0077900Y0214273D01*
X0077990Y0214382D01*
X0078083Y0214488D01*
X0078178Y0214591D01*
X0078277Y0214692D01*
X0078378Y0214790D01*
X0078482Y0214885D01*
X0078589Y0214977D01*
X0078698Y0215066D01*
X0078810Y0215151D01*
X0078924Y0215234D01*
X0079040Y0215314D01*
X0079159Y0215390D01*
X0079280Y0215462D01*
X0079402Y0215532D01*
X0079527Y0215597D01*
X0079653Y0215660D01*
X0079781Y0215718D01*
X0079911Y0215773D01*
X0080042Y0215825D01*
X0080175Y0215872D01*
X0080309Y0215916D01*
X0080444Y0215957D01*
X0080580Y0215993D01*
X0080717Y0216025D01*
X0080855Y0216054D01*
X0080993Y0216079D01*
X0081133Y0216099D01*
X0081273Y0216116D01*
X0081413Y0216129D01*
X0081554Y0216138D01*
X0081694Y0216143D01*
X0081835Y0216144D01*
X0081976Y0216141D01*
X0082117Y0216134D01*
X0082257Y0216123D01*
X0082397Y0216108D01*
X0082537Y0216089D01*
X0082676Y0216067D01*
X0082814Y0216040D01*
X0082952Y0216010D01*
X0083088Y0215975D01*
X0083224Y0215937D01*
X0083358Y0215895D01*
X0083492Y0215849D01*
X0083624Y0215800D01*
X0083754Y0215746D01*
X0083883Y0215689D01*
X0084010Y0215629D01*
X0084136Y0215565D01*
X0084259Y0215497D01*
X0084381Y0215426D01*
X0084501Y0215352D01*
X0084618Y0215274D01*
X0084733Y0215193D01*
X0084846Y0215109D01*
X0084957Y0215022D01*
X0085065Y0214931D01*
X0085170Y0214838D01*
X0085273Y0214741D01*
X0085373Y0214642D01*
X0085470Y0214540D01*
X0085564Y0214435D01*
X0085655Y0214328D01*
X0085743Y0214218D01*
X0085828Y0214106D01*
X0085910Y0213991D01*
X0085989Y0213874D01*
X0086064Y0213755D01*
X0086136Y0213634D01*
X0086204Y0213511D01*
X0086269Y0213386D01*
X0086331Y0213259D01*
X0086388Y0213130D01*
X0086443Y0213000D01*
X0086493Y0212869D01*
X0086540Y0212736D01*
X0086583Y0212602D01*
X0086622Y0212466D01*
X0086657Y0212330D01*
X0086689Y0212193D01*
X0086716Y0212055D01*
X0086740Y0211916D01*
X0086760Y0211776D01*
X0086776Y0211636D01*
X0086788Y0211496D01*
X0086796Y0211355D01*
X0086800Y0211214D01*
X0086800Y0211074D01*
X0086796Y0210933D01*
X0086788Y0210792D01*
X0086776Y0210652D01*
X0086760Y0210512D01*
X0086740Y0210372D01*
X0086716Y0210233D01*
X0086689Y0210095D01*
X0086657Y0209958D01*
X0086622Y0209822D01*
X0086583Y0209686D01*
X0086540Y0209552D01*
X0086493Y0209419D01*
X0086443Y0209288D01*
X0086388Y0209158D01*
X0086331Y0209029D01*
X0086269Y0208902D01*
X0086204Y0208777D01*
X0086136Y0208654D01*
X0086064Y0208533D01*
X0085989Y0208414D01*
X0085910Y0208297D01*
X0085828Y0208182D01*
X0085743Y0208070D01*
X0085655Y0207960D01*
X0085564Y0207853D01*
X0085470Y0207748D01*
X0085373Y0207646D01*
X0085273Y0207547D01*
X0085170Y0207450D01*
X0085065Y0207357D01*
X0084957Y0207266D01*
X0084846Y0207179D01*
X0084733Y0207095D01*
X0084618Y0207014D01*
X0084501Y0206936D01*
X0084381Y0206862D01*
X0084259Y0206791D01*
X0084136Y0206723D01*
X0084010Y0206659D01*
X0083883Y0206599D01*
X0083754Y0206542D01*
X0083624Y0206488D01*
X0083492Y0206439D01*
X0083358Y0206393D01*
X0083224Y0206351D01*
X0083088Y0206313D01*
X0082952Y0206278D01*
X0082814Y0206248D01*
X0082676Y0206221D01*
X0082537Y0206199D01*
X0082397Y0206180D01*
X0082257Y0206165D01*
X0082117Y0206154D01*
X0081976Y0206147D01*
X0081835Y0206144D01*
X0081694Y0206145D01*
X0081554Y0206150D01*
X0081413Y0206159D01*
X0081273Y0206172D01*
X0081133Y0206189D01*
X0080993Y0206209D01*
X0080855Y0206234D01*
X0080717Y0206263D01*
X0080580Y0206295D01*
X0080444Y0206331D01*
X0080309Y0206372D01*
X0080175Y0206416D01*
X0080042Y0206463D01*
X0079911Y0206515D01*
X0079781Y0206570D01*
X0079653Y0206628D01*
X0079527Y0206691D01*
X0079402Y0206756D01*
X0079280Y0206826D01*
X0079159Y0206898D01*
X0079040Y0206974D01*
X0078924Y0207054D01*
X0078810Y0207137D01*
X0078698Y0207222D01*
X0078589Y0207311D01*
X0078482Y0207403D01*
X0078378Y0207498D01*
X0078277Y0207596D01*
X0078178Y0207697D01*
X0078083Y0207800D01*
X0077990Y0207906D01*
X0077900Y0208015D01*
X0077814Y0208126D01*
X0077730Y0208239D01*
X0077650Y0208355D01*
X0077573Y0208473D01*
X0077500Y0208593D01*
X0077429Y0208716D01*
X0077363Y0208840D01*
X0077300Y0208966D01*
X0077240Y0209093D01*
X0077184Y0209222D01*
X0077132Y0209353D01*
X0077083Y0209485D01*
X0077038Y0209619D01*
X0076997Y0209754D01*
X0076960Y0209890D01*
X0076926Y0210026D01*
X0076897Y0210164D01*
X0076871Y0210303D01*
X0076850Y0210442D01*
X0076832Y0210582D01*
X0076818Y0210722D01*
X0076808Y0210862D01*
X0076802Y0211003D01*
X0076800Y0211144D01*
X0081800Y0221144D02*
X0082042Y0221141D01*
X0082283Y0221132D01*
X0082524Y0221118D01*
X0082765Y0221097D01*
X0083005Y0221071D01*
X0083245Y0221039D01*
X0083484Y0221001D01*
X0083721Y0220958D01*
X0083958Y0220908D01*
X0084193Y0220853D01*
X0084427Y0220793D01*
X0084659Y0220726D01*
X0084890Y0220655D01*
X0085119Y0220577D01*
X0085346Y0220494D01*
X0085571Y0220406D01*
X0085794Y0220312D01*
X0086014Y0220213D01*
X0086232Y0220108D01*
X0086447Y0219999D01*
X0086660Y0219884D01*
X0086870Y0219764D01*
X0087076Y0219639D01*
X0087280Y0219509D01*
X0087481Y0219374D01*
X0087678Y0219234D01*
X0087872Y0219090D01*
X0088062Y0218941D01*
X0088248Y0218787D01*
X0088431Y0218629D01*
X0088610Y0218467D01*
X0088785Y0218300D01*
X0088956Y0218129D01*
X0089123Y0217954D01*
X0089285Y0217775D01*
X0089443Y0217592D01*
X0089597Y0217406D01*
X0089746Y0217216D01*
X0089890Y0217022D01*
X0090030Y0216825D01*
X0090165Y0216624D01*
X0090295Y0216420D01*
X0090420Y0216214D01*
X0090540Y0216004D01*
X0090655Y0215791D01*
X0090764Y0215576D01*
X0090869Y0215358D01*
X0090968Y0215138D01*
X0091062Y0214915D01*
X0091150Y0214690D01*
X0091233Y0214463D01*
X0091311Y0214234D01*
X0091382Y0214003D01*
X0091449Y0213771D01*
X0091509Y0213537D01*
X0091564Y0213302D01*
X0091614Y0213065D01*
X0091657Y0212828D01*
X0091695Y0212589D01*
X0091727Y0212349D01*
X0091753Y0212109D01*
X0091774Y0211868D01*
X0091788Y0211627D01*
X0091797Y0211386D01*
X0091800Y0211144D01*
X0081800Y0221144D02*
X0011800Y0221144D01*
X0006800Y0211144D02*
X0006802Y0211285D01*
X0006808Y0211426D01*
X0006818Y0211566D01*
X0006832Y0211706D01*
X0006850Y0211846D01*
X0006871Y0211985D01*
X0006897Y0212124D01*
X0006926Y0212262D01*
X0006960Y0212398D01*
X0006997Y0212534D01*
X0007038Y0212669D01*
X0007083Y0212803D01*
X0007132Y0212935D01*
X0007184Y0213066D01*
X0007240Y0213195D01*
X0007300Y0213322D01*
X0007363Y0213448D01*
X0007429Y0213572D01*
X0007500Y0213695D01*
X0007573Y0213815D01*
X0007650Y0213933D01*
X0007730Y0214049D01*
X0007814Y0214162D01*
X0007900Y0214273D01*
X0007990Y0214382D01*
X0008083Y0214488D01*
X0008178Y0214591D01*
X0008277Y0214692D01*
X0008378Y0214790D01*
X0008482Y0214885D01*
X0008589Y0214977D01*
X0008698Y0215066D01*
X0008810Y0215151D01*
X0008924Y0215234D01*
X0009040Y0215314D01*
X0009159Y0215390D01*
X0009280Y0215462D01*
X0009402Y0215532D01*
X0009527Y0215597D01*
X0009653Y0215660D01*
X0009781Y0215718D01*
X0009911Y0215773D01*
X0010042Y0215825D01*
X0010175Y0215872D01*
X0010309Y0215916D01*
X0010444Y0215957D01*
X0010580Y0215993D01*
X0010717Y0216025D01*
X0010855Y0216054D01*
X0010993Y0216079D01*
X0011133Y0216099D01*
X0011273Y0216116D01*
X0011413Y0216129D01*
X0011554Y0216138D01*
X0011694Y0216143D01*
X0011835Y0216144D01*
X0011976Y0216141D01*
X0012117Y0216134D01*
X0012257Y0216123D01*
X0012397Y0216108D01*
X0012537Y0216089D01*
X0012676Y0216067D01*
X0012814Y0216040D01*
X0012952Y0216010D01*
X0013088Y0215975D01*
X0013224Y0215937D01*
X0013358Y0215895D01*
X0013492Y0215849D01*
X0013624Y0215800D01*
X0013754Y0215746D01*
X0013883Y0215689D01*
X0014010Y0215629D01*
X0014136Y0215565D01*
X0014259Y0215497D01*
X0014381Y0215426D01*
X0014501Y0215352D01*
X0014618Y0215274D01*
X0014733Y0215193D01*
X0014846Y0215109D01*
X0014957Y0215022D01*
X0015065Y0214931D01*
X0015170Y0214838D01*
X0015273Y0214741D01*
X0015373Y0214642D01*
X0015470Y0214540D01*
X0015564Y0214435D01*
X0015655Y0214328D01*
X0015743Y0214218D01*
X0015828Y0214106D01*
X0015910Y0213991D01*
X0015989Y0213874D01*
X0016064Y0213755D01*
X0016136Y0213634D01*
X0016204Y0213511D01*
X0016269Y0213386D01*
X0016331Y0213259D01*
X0016388Y0213130D01*
X0016443Y0213000D01*
X0016493Y0212869D01*
X0016540Y0212736D01*
X0016583Y0212602D01*
X0016622Y0212466D01*
X0016657Y0212330D01*
X0016689Y0212193D01*
X0016716Y0212055D01*
X0016740Y0211916D01*
X0016760Y0211776D01*
X0016776Y0211636D01*
X0016788Y0211496D01*
X0016796Y0211355D01*
X0016800Y0211214D01*
X0016800Y0211074D01*
X0016796Y0210933D01*
X0016788Y0210792D01*
X0016776Y0210652D01*
X0016760Y0210512D01*
X0016740Y0210372D01*
X0016716Y0210233D01*
X0016689Y0210095D01*
X0016657Y0209958D01*
X0016622Y0209822D01*
X0016583Y0209686D01*
X0016540Y0209552D01*
X0016493Y0209419D01*
X0016443Y0209288D01*
X0016388Y0209158D01*
X0016331Y0209029D01*
X0016269Y0208902D01*
X0016204Y0208777D01*
X0016136Y0208654D01*
X0016064Y0208533D01*
X0015989Y0208414D01*
X0015910Y0208297D01*
X0015828Y0208182D01*
X0015743Y0208070D01*
X0015655Y0207960D01*
X0015564Y0207853D01*
X0015470Y0207748D01*
X0015373Y0207646D01*
X0015273Y0207547D01*
X0015170Y0207450D01*
X0015065Y0207357D01*
X0014957Y0207266D01*
X0014846Y0207179D01*
X0014733Y0207095D01*
X0014618Y0207014D01*
X0014501Y0206936D01*
X0014381Y0206862D01*
X0014259Y0206791D01*
X0014136Y0206723D01*
X0014010Y0206659D01*
X0013883Y0206599D01*
X0013754Y0206542D01*
X0013624Y0206488D01*
X0013492Y0206439D01*
X0013358Y0206393D01*
X0013224Y0206351D01*
X0013088Y0206313D01*
X0012952Y0206278D01*
X0012814Y0206248D01*
X0012676Y0206221D01*
X0012537Y0206199D01*
X0012397Y0206180D01*
X0012257Y0206165D01*
X0012117Y0206154D01*
X0011976Y0206147D01*
X0011835Y0206144D01*
X0011694Y0206145D01*
X0011554Y0206150D01*
X0011413Y0206159D01*
X0011273Y0206172D01*
X0011133Y0206189D01*
X0010993Y0206209D01*
X0010855Y0206234D01*
X0010717Y0206263D01*
X0010580Y0206295D01*
X0010444Y0206331D01*
X0010309Y0206372D01*
X0010175Y0206416D01*
X0010042Y0206463D01*
X0009911Y0206515D01*
X0009781Y0206570D01*
X0009653Y0206628D01*
X0009527Y0206691D01*
X0009402Y0206756D01*
X0009280Y0206826D01*
X0009159Y0206898D01*
X0009040Y0206974D01*
X0008924Y0207054D01*
X0008810Y0207137D01*
X0008698Y0207222D01*
X0008589Y0207311D01*
X0008482Y0207403D01*
X0008378Y0207498D01*
X0008277Y0207596D01*
X0008178Y0207697D01*
X0008083Y0207800D01*
X0007990Y0207906D01*
X0007900Y0208015D01*
X0007814Y0208126D01*
X0007730Y0208239D01*
X0007650Y0208355D01*
X0007573Y0208473D01*
X0007500Y0208593D01*
X0007429Y0208716D01*
X0007363Y0208840D01*
X0007300Y0208966D01*
X0007240Y0209093D01*
X0007184Y0209222D01*
X0007132Y0209353D01*
X0007083Y0209485D01*
X0007038Y0209619D01*
X0006997Y0209754D01*
X0006960Y0209890D01*
X0006926Y0210026D01*
X0006897Y0210164D01*
X0006871Y0210303D01*
X0006850Y0210442D01*
X0006832Y0210582D01*
X0006818Y0210722D01*
X0006808Y0210862D01*
X0006802Y0211003D01*
X0006800Y0211144D01*
X0001800Y0211144D02*
X0001803Y0211386D01*
X0001812Y0211627D01*
X0001826Y0211868D01*
X0001847Y0212109D01*
X0001873Y0212349D01*
X0001905Y0212589D01*
X0001943Y0212828D01*
X0001986Y0213065D01*
X0002036Y0213302D01*
X0002091Y0213537D01*
X0002151Y0213771D01*
X0002218Y0214003D01*
X0002289Y0214234D01*
X0002367Y0214463D01*
X0002450Y0214690D01*
X0002538Y0214915D01*
X0002632Y0215138D01*
X0002731Y0215358D01*
X0002836Y0215576D01*
X0002945Y0215791D01*
X0003060Y0216004D01*
X0003180Y0216214D01*
X0003305Y0216420D01*
X0003435Y0216624D01*
X0003570Y0216825D01*
X0003710Y0217022D01*
X0003854Y0217216D01*
X0004003Y0217406D01*
X0004157Y0217592D01*
X0004315Y0217775D01*
X0004477Y0217954D01*
X0004644Y0218129D01*
X0004815Y0218300D01*
X0004990Y0218467D01*
X0005169Y0218629D01*
X0005352Y0218787D01*
X0005538Y0218941D01*
X0005728Y0219090D01*
X0005922Y0219234D01*
X0006119Y0219374D01*
X0006320Y0219509D01*
X0006524Y0219639D01*
X0006730Y0219764D01*
X0006940Y0219884D01*
X0007153Y0219999D01*
X0007368Y0220108D01*
X0007586Y0220213D01*
X0007806Y0220312D01*
X0008029Y0220406D01*
X0008254Y0220494D01*
X0008481Y0220577D01*
X0008710Y0220655D01*
X0008941Y0220726D01*
X0009173Y0220793D01*
X0009407Y0220853D01*
X0009642Y0220908D01*
X0009879Y0220958D01*
X0010116Y0221001D01*
X0010355Y0221039D01*
X0010595Y0221071D01*
X0010835Y0221097D01*
X0011076Y0221118D01*
X0011317Y0221132D01*
X0011558Y0221141D01*
X0011800Y0221144D01*
X0001800Y0211144D02*
X0001800Y0026144D01*
X0001802Y0026004D01*
X0001808Y0025864D01*
X0001818Y0025724D01*
X0001831Y0025584D01*
X0001849Y0025445D01*
X0001871Y0025306D01*
X0001896Y0025169D01*
X0001925Y0025031D01*
X0001958Y0024895D01*
X0001995Y0024760D01*
X0002036Y0024626D01*
X0002081Y0024493D01*
X0002129Y0024361D01*
X0002181Y0024231D01*
X0002236Y0024102D01*
X0002295Y0023975D01*
X0002358Y0023849D01*
X0002424Y0023725D01*
X0002493Y0023604D01*
X0002566Y0023484D01*
X0002643Y0023366D01*
X0002722Y0023251D01*
X0002805Y0023137D01*
X0002891Y0023027D01*
X0002980Y0022918D01*
X0003072Y0022812D01*
X0003167Y0022709D01*
X0003264Y0022608D01*
X0003365Y0022511D01*
X0003468Y0022416D01*
X0003574Y0022324D01*
X0003683Y0022235D01*
X0003793Y0022149D01*
X0003907Y0022066D01*
X0004022Y0021987D01*
X0004140Y0021910D01*
X0004260Y0021837D01*
X0004381Y0021768D01*
X0004505Y0021702D01*
X0004631Y0021639D01*
X0004758Y0021580D01*
X0004887Y0021525D01*
X0005017Y0021473D01*
X0005149Y0021425D01*
X0005282Y0021380D01*
X0005416Y0021339D01*
X0005551Y0021302D01*
X0005687Y0021269D01*
X0005825Y0021240D01*
X0005962Y0021215D01*
X0006101Y0021193D01*
X0006240Y0021175D01*
X0006380Y0021162D01*
X0006520Y0021152D01*
X0006660Y0021146D01*
X0006800Y0021144D01*
X0006790Y0029353D02*
X0023591Y0029353D01*
X0026800Y0026144D01*
X0021800Y0036144D02*
X0021800Y0048644D01*
X0024300Y0051144D01*
X0024300Y0061144D01*
X0026800Y0063644D01*
X0031800Y0063644D01*
X0036800Y0068644D01*
X0036800Y0071144D01*
X0039300Y0073644D01*
X0039300Y0078644D01*
X0036800Y0081144D01*
X0039300Y0083644D02*
X0041800Y0083644D01*
X0041800Y0066144D01*
X0044300Y0063644D01*
X0044300Y0048644D01*
X0051780Y0041164D01*
X0064300Y0041164D01*
X0064300Y0043644D01*
X0064300Y0041164D02*
X0076810Y0041164D01*
X0076810Y0035258D02*
X0070186Y0035258D01*
X0069300Y0036144D01*
X0064300Y0028644D02*
X0061800Y0031144D01*
X0064300Y0028644D02*
X0077519Y0028644D01*
X0076810Y0029353D01*
X0077519Y0028644D02*
X0079300Y0028644D01*
X0081800Y0031144D01*
X0081800Y0051144D01*
X0086800Y0056144D01*
X0086800Y0076144D02*
X0086347Y0076597D01*
X0076810Y0076597D01*
X0076357Y0071144D02*
X0076810Y0070691D01*
X0076357Y0071144D02*
X0069300Y0071144D01*
X0066800Y0073644D01*
X0066800Y0088644D01*
X0070560Y0092404D01*
X0071800Y0092404D01*
X0078060Y0092404D01*
X0081800Y0096144D01*
X0081800Y0141144D01*
X0071800Y0141144D01*
X0069300Y0143644D01*
X0069300Y0146144D01*
X0074300Y0151144D01*
X0074300Y0161144D01*
X0071800Y0163644D01*
X0076800Y0168644D01*
X0076800Y0173644D01*
X0071800Y0178644D01*
X0054300Y0178644D01*
X0051800Y0176144D01*
X0041800Y0176144D01*
X0039300Y0178644D01*
X0026800Y0178644D01*
X0024300Y0176144D01*
X0024300Y0174865D01*
X0023650Y0174215D01*
X0021800Y0172365D01*
X0021800Y0166144D01*
X0023650Y0158073D02*
X0021800Y0156223D01*
X0021800Y0153644D01*
X0019300Y0156144D01*
X0006800Y0156144D01*
X0011800Y0161144D02*
X0006800Y0166144D01*
X0006800Y0176144D02*
X0011800Y0181144D01*
X0011800Y0183644D01*
X0014300Y0186144D01*
X0046800Y0186144D01*
X0044300Y0183644D02*
X0046800Y0181144D01*
X0049300Y0183644D01*
X0076800Y0183644D01*
X0081800Y0178644D01*
X0081800Y0173644D01*
X0086800Y0168644D01*
X0086800Y0166144D01*
X0081800Y0163644D02*
X0086800Y0158644D01*
X0086800Y0156144D01*
X0081800Y0163644D02*
X0076800Y0163644D01*
X0079300Y0166144D01*
X0079300Y0176144D01*
X0074300Y0181144D01*
X0051800Y0181144D01*
X0049300Y0178644D01*
X0044300Y0178644D01*
X0041800Y0181144D01*
X0019300Y0181144D01*
X0019300Y0176144D01*
X0016800Y0176144D01*
X0011800Y0171144D01*
X0014300Y0178644D02*
X0014300Y0181144D01*
X0016800Y0183644D01*
X0044300Y0183644D01*
X0041800Y0191144D02*
X0041800Y0196144D01*
X0051800Y0196144D01*
X0051800Y0202010D01*
X0051918Y0202128D01*
X0051800Y0191144D02*
X0056800Y0186144D01*
X0079300Y0186144D01*
X0086800Y0178644D01*
X0086800Y0176144D01*
X0086800Y0186144D02*
X0076800Y0196144D01*
X0066800Y0196144D01*
X0061800Y0191144D01*
X0063650Y0174215D02*
X0066721Y0168644D01*
X0066800Y0168644D01*
X0066800Y0161144D01*
X0063650Y0157994D01*
X0063650Y0158073D01*
X0062371Y0158073D01*
X0061800Y0158644D01*
X0056800Y0158644D01*
X0054300Y0161144D01*
X0051800Y0158644D01*
X0051800Y0154884D01*
X0050560Y0153644D01*
X0049300Y0152384D01*
X0049300Y0151144D01*
X0046800Y0148644D01*
X0046800Y0146144D01*
X0046800Y0141144D02*
X0041800Y0141144D01*
X0041800Y0151144D01*
X0039300Y0153644D01*
X0039300Y0156144D01*
X0036800Y0156144D01*
X0034300Y0153644D01*
X0026800Y0153644D01*
X0021800Y0148644D01*
X0019300Y0151144D01*
X0011800Y0151144D01*
X0006800Y0146144D01*
X0011800Y0161144D02*
X0026800Y0161144D01*
X0031800Y0166144D01*
X0034300Y0166144D01*
X0036800Y0151144D02*
X0034300Y0148644D01*
X0026800Y0148644D01*
X0024300Y0146144D01*
X0014300Y0146144D01*
X0014300Y0111144D01*
X0014517Y0110928D01*
X0014517Y0111144D01*
X0012017Y0108644D01*
X0009300Y0108644D01*
X0006800Y0106144D01*
X0006800Y0096144D02*
X0041800Y0096144D01*
X0044300Y0098644D01*
X0044300Y0101144D01*
X0049300Y0106144D01*
X0049300Y0113644D01*
X0059300Y0113644D01*
X0059300Y0114904D01*
X0063040Y0118644D01*
X0063040Y0126026D01*
X0066800Y0138644D02*
X0064300Y0141144D01*
X0056800Y0141144D01*
X0055560Y0139904D01*
X0055560Y0136263D01*
X0056800Y0141144D02*
X0053060Y0141144D01*
X0053060Y0146144D01*
X0054300Y0147384D01*
X0054300Y0148644D01*
X0058040Y0152384D01*
X0058040Y0153644D01*
X0054300Y0146144D02*
X0053060Y0146144D01*
X0051800Y0146144D01*
X0053060Y0144884D01*
X0054300Y0144884D01*
X0050560Y0153644D02*
X0049300Y0153644D01*
X0044300Y0153644D02*
X0044300Y0161144D01*
X0044300Y0171144D02*
X0049300Y0171144D01*
X0054300Y0171144D02*
X0056800Y0171144D01*
X0061800Y0166144D01*
X0066800Y0138644D02*
X0076800Y0138644D01*
X0076800Y0129884D01*
X0075560Y0128644D01*
X0074300Y0128644D01*
X0071800Y0126144D01*
X0071800Y0111144D01*
X0064300Y0111144D01*
X0064300Y0108644D01*
X0061800Y0106144D01*
X0060166Y0106144D01*
X0060166Y0101518D01*
X0061800Y0099884D01*
X0061800Y0092404D02*
X0061800Y0073644D01*
X0054300Y0073644D01*
X0056800Y0078644D02*
X0056800Y0088644D01*
X0055540Y0088644D01*
X0053040Y0091144D01*
X0054300Y0092404D01*
X0054300Y0098644D01*
X0051800Y0098644D01*
X0054300Y0092384D02*
X0053040Y0091144D01*
X0045560Y0087384D02*
X0049300Y0083644D01*
X0051800Y0078644D02*
X0049300Y0076144D01*
X0049300Y0071144D01*
X0051800Y0068644D01*
X0059300Y0068644D01*
X0059300Y0058644D01*
X0076574Y0058644D01*
X0076810Y0058880D01*
X0076141Y0053644D02*
X0076810Y0052975D01*
X0076141Y0053644D02*
X0071800Y0053644D01*
X0066800Y0051144D02*
X0051800Y0051144D01*
X0051800Y0053644D01*
X0046800Y0051144D02*
X0050875Y0047069D01*
X0076810Y0047069D01*
X0076810Y0064786D02*
X0075452Y0066144D01*
X0066800Y0066144D01*
X0061800Y0071144D01*
X0061800Y0073644D01*
X0056800Y0078644D02*
X0051800Y0078644D01*
X0044300Y0068644D02*
X0046800Y0066144D01*
X0046800Y0051144D01*
X0044300Y0068644D02*
X0044300Y0086144D01*
X0041800Y0086144D01*
X0041800Y0091144D01*
X0039300Y0091144D01*
X0039300Y0093644D01*
X0019300Y0093644D01*
X0016800Y0091144D01*
X0019300Y0086144D02*
X0014300Y0086144D01*
X0011800Y0078644D02*
X0021800Y0078644D01*
X0029300Y0086144D01*
X0034300Y0086144D01*
X0036800Y0088644D02*
X0039300Y0088644D01*
X0039300Y0083644D01*
X0036800Y0088644D02*
X0036800Y0091144D01*
X0024300Y0091144D01*
X0019300Y0086144D01*
X0021800Y0083644D02*
X0019300Y0081144D01*
X0009300Y0081144D01*
X0007243Y0079087D01*
X0007243Y0076144D01*
X0006790Y0076597D01*
X0007243Y0071144D02*
X0011800Y0071144D01*
X0011800Y0078644D01*
X0014300Y0073644D02*
X0024300Y0073644D01*
X0021800Y0068644D02*
X0026800Y0068644D01*
X0029300Y0071144D01*
X0029300Y0076144D01*
X0026800Y0078644D01*
X0021800Y0068644D02*
X0019300Y0066144D01*
X0019300Y0056144D01*
X0016800Y0053644D01*
X0007459Y0053644D01*
X0006790Y0052975D01*
X0006790Y0047069D02*
X0017725Y0047069D01*
X0019300Y0048644D01*
X0019300Y0051144D01*
X0021800Y0053644D01*
X0021800Y0063644D01*
X0024300Y0066144D01*
X0029300Y0066144D01*
X0034300Y0071144D01*
X0034300Y0076144D01*
X0033060Y0099904D02*
X0030324Y0099904D01*
X0029083Y0101144D01*
X0029083Y0111144D01*
X0026800Y0116144D02*
X0031800Y0116144D01*
X0031800Y0117384D01*
X0033060Y0118644D01*
X0033040Y0118664D01*
X0033040Y0126026D01*
X0029300Y0126026D02*
X0029300Y0123644D01*
X0026800Y0121144D01*
X0019300Y0121144D01*
X0019300Y0124904D01*
X0019300Y0132384D02*
X0019300Y0133644D01*
X0021800Y0136144D01*
X0025441Y0136144D01*
X0025560Y0136263D01*
X0029300Y0133644D02*
X0025560Y0129904D01*
X0025560Y0126026D01*
X0029300Y0133644D02*
X0029300Y0142384D01*
X0030560Y0143644D01*
X0033040Y0136263D02*
X0036681Y0136263D01*
X0036800Y0136144D01*
X0039300Y0133644D01*
X0039300Y0128644D01*
X0042666Y0128644D01*
X0044300Y0127010D01*
X0044300Y0135278D02*
X0041800Y0137778D01*
X0041800Y0138644D01*
X0039300Y0138644D01*
X0039300Y0142384D01*
X0038040Y0143644D01*
X0051800Y0118644D02*
X0049300Y0116144D01*
X0046800Y0116144D01*
X0046800Y0108644D01*
X0040560Y0102404D01*
X0039300Y0102404D01*
X0038040Y0101144D01*
X0039300Y0101144D01*
X0038040Y0101144D02*
X0034300Y0101144D01*
X0033060Y0099904D01*
X0021800Y0111144D02*
X0026800Y0116144D01*
X0021800Y0111144D02*
X0021800Y0101144D01*
X0014517Y0101144D01*
X0014300Y0073644D02*
X0014300Y0068644D01*
X0011800Y0066144D01*
X0009300Y0066144D01*
X0007942Y0064786D01*
X0006790Y0064786D01*
X0009300Y0063644D02*
X0009300Y0066144D01*
X0006790Y0070691D02*
X0007243Y0071144D01*
X0006790Y0041164D02*
X0016780Y0041164D01*
X0016800Y0041144D01*
X0021800Y0036144D02*
X0007676Y0036144D01*
X0006790Y0035258D01*
X0045560Y0087384D02*
X0045560Y0091144D01*
X0051800Y0118644D02*
X0055560Y0118644D01*
X0055560Y0126026D01*
X0068434Y0106144D02*
X0068434Y0102010D01*
X0069300Y0101144D01*
X0070540Y0101144D01*
X0071800Y0099884D01*
X0071800Y0093644D02*
X0070540Y0093644D01*
X0071800Y0092404D01*
X0071800Y0086144D02*
X0086800Y0086144D01*
X0076800Y0108644D02*
X0076800Y0122404D01*
X0074300Y0146144D02*
X0086800Y0146144D01*
X0040698Y0201144D02*
X0041682Y0202128D01*
X0040698Y0201144D02*
X0036800Y0201144D01*
X0035119Y0202825D01*
X0033414Y0202825D01*
X0024871Y0174215D02*
X0023650Y0174215D01*
X0014300Y0191144D02*
X0011800Y0191144D01*
X0006800Y0186144D01*
D11*
X0006790Y0076597D03*
X0006790Y0070691D03*
X0006790Y0064786D03*
X0006790Y0058880D03*
X0006790Y0052975D03*
X0006790Y0047069D03*
X0006790Y0041164D03*
X0006790Y0035258D03*
X0006790Y0029353D03*
X0076810Y0029353D03*
X0076810Y0035258D03*
X0076810Y0041164D03*
X0076810Y0047069D03*
X0076810Y0052975D03*
X0076810Y0058880D03*
X0076810Y0064786D03*
X0076810Y0070691D03*
X0076810Y0076597D03*
D12*
X0071800Y0191144D03*
X0061800Y0191144D03*
X0051800Y0191144D03*
X0041800Y0191144D03*
X0031800Y0191144D03*
X0021800Y0191144D03*
X0006800Y0186144D03*
X0006800Y0196144D03*
X0006800Y0176144D03*
X0006800Y0166144D03*
X0006800Y0156144D03*
X0006800Y0146144D03*
X0006800Y0136144D03*
X0006800Y0126144D03*
X0006800Y0116144D03*
X0006800Y0106144D03*
X0006800Y0096144D03*
X0006800Y0086144D03*
D13*
X0030560Y0143644D03*
X0038040Y0143644D03*
X0040540Y0118644D03*
X0033060Y0118644D03*
X0045560Y0091144D03*
X0053040Y0091144D03*
X0055560Y0118644D03*
X0063040Y0118644D03*
X0060540Y0146144D03*
X0058040Y0153644D03*
X0053060Y0146144D03*
X0050560Y0153644D03*
D14*
X0055560Y0136263D03*
X0055560Y0126026D03*
X0059300Y0126026D03*
X0063040Y0126026D03*
X0063040Y0136263D03*
X0033040Y0136263D03*
X0033040Y0126026D03*
X0029300Y0126026D03*
X0025560Y0126026D03*
X0025560Y0136263D03*
D15*
X0019300Y0132384D03*
X0019300Y0124904D03*
X0039300Y0109884D03*
X0039300Y0102404D03*
X0061800Y0099884D03*
X0061800Y0092404D03*
X0071800Y0092404D03*
X0071800Y0099884D03*
X0076800Y0122404D03*
X0076800Y0129884D03*
D16*
X0054300Y0161144D03*
X0054300Y0171144D03*
X0044300Y0171144D03*
X0044300Y0161144D03*
D17*
X0029083Y0111144D03*
X0029083Y0101144D03*
X0014517Y0101144D03*
X0014517Y0111144D03*
D18*
X0023650Y0158073D03*
X0029950Y0158073D03*
X0029950Y0174215D03*
X0023650Y0174215D03*
X0063650Y0174215D03*
X0069950Y0174215D03*
X0069950Y0158073D03*
X0063650Y0158073D03*
D19*
X0044300Y0135278D03*
X0044300Y0127010D03*
X0060166Y0106144D03*
X0068434Y0106144D03*
D20*
X0059500Y0211644D02*
X0059500Y0215644D01*
X0034100Y0215644D02*
X0034100Y0211644D01*
D21*
X0041307Y0199503D02*
X0042057Y0199503D01*
X0041307Y0199503D02*
X0041307Y0204753D01*
X0042057Y0204753D01*
X0042057Y0199503D01*
X0042057Y0200252D02*
X0041307Y0200252D01*
X0041307Y0201001D02*
X0042057Y0201001D01*
X0042057Y0201750D02*
X0041307Y0201750D01*
X0041307Y0202499D02*
X0042057Y0202499D01*
X0042057Y0203248D02*
X0041307Y0203248D01*
X0041307Y0203997D02*
X0042057Y0203997D01*
X0042057Y0204746D02*
X0041307Y0204746D01*
X0043866Y0199503D02*
X0044616Y0199503D01*
X0043866Y0199503D02*
X0043866Y0204753D01*
X0044616Y0204753D01*
X0044616Y0199503D01*
X0044616Y0200252D02*
X0043866Y0200252D01*
X0043866Y0201001D02*
X0044616Y0201001D01*
X0044616Y0201750D02*
X0043866Y0201750D01*
X0043866Y0202499D02*
X0044616Y0202499D01*
X0044616Y0203248D02*
X0043866Y0203248D01*
X0043866Y0203997D02*
X0044616Y0203997D01*
X0044616Y0204746D02*
X0043866Y0204746D01*
X0046425Y0199503D02*
X0047175Y0199503D01*
X0046425Y0199503D02*
X0046425Y0204753D01*
X0047175Y0204753D01*
X0047175Y0199503D01*
X0047175Y0200252D02*
X0046425Y0200252D01*
X0046425Y0201001D02*
X0047175Y0201001D01*
X0047175Y0201750D02*
X0046425Y0201750D01*
X0046425Y0202499D02*
X0047175Y0202499D01*
X0047175Y0203248D02*
X0046425Y0203248D01*
X0046425Y0203997D02*
X0047175Y0203997D01*
X0047175Y0204746D02*
X0046425Y0204746D01*
X0048984Y0199503D02*
X0049734Y0199503D01*
X0048984Y0199503D02*
X0048984Y0204753D01*
X0049734Y0204753D01*
X0049734Y0199503D01*
X0049734Y0200252D02*
X0048984Y0200252D01*
X0048984Y0201001D02*
X0049734Y0201001D01*
X0049734Y0201750D02*
X0048984Y0201750D01*
X0048984Y0202499D02*
X0049734Y0202499D01*
X0049734Y0203248D02*
X0048984Y0203248D01*
X0048984Y0203997D02*
X0049734Y0203997D01*
X0049734Y0204746D02*
X0048984Y0204746D01*
X0051543Y0199503D02*
X0052293Y0199503D01*
X0051543Y0199503D02*
X0051543Y0204753D01*
X0052293Y0204753D01*
X0052293Y0199503D01*
X0052293Y0200252D02*
X0051543Y0200252D01*
X0051543Y0201001D02*
X0052293Y0201001D01*
X0052293Y0201750D02*
X0051543Y0201750D01*
X0051543Y0202499D02*
X0052293Y0202499D01*
X0052293Y0203248D02*
X0051543Y0203248D01*
X0051543Y0203997D02*
X0052293Y0203997D01*
X0052293Y0204746D02*
X0051543Y0204746D01*
D22*
X0058412Y0204200D02*
X0058412Y0201450D01*
X0058412Y0204200D02*
X0061960Y0204200D01*
X0061960Y0201450D01*
X0058412Y0201450D01*
X0058412Y0204199D02*
X0061960Y0204199D01*
X0031640Y0204200D02*
X0031640Y0201450D01*
X0031640Y0204200D02*
X0035188Y0204200D01*
X0035188Y0201450D01*
X0031640Y0201450D01*
X0031640Y0204199D02*
X0035188Y0204199D01*
D23*
X0041386Y0216401D02*
X0044340Y0216401D01*
X0044340Y0213447D01*
X0041386Y0213447D01*
X0041386Y0216401D01*
X0041386Y0216399D02*
X0044340Y0216399D01*
X0049260Y0216401D02*
X0052214Y0216401D01*
X0052214Y0213447D01*
X0049260Y0213447D01*
X0049260Y0216401D01*
X0049260Y0216399D02*
X0052214Y0216399D01*
D24*
X0053424Y0203703D02*
X0053426Y0203773D01*
X0053432Y0203843D01*
X0053442Y0203912D01*
X0053455Y0203981D01*
X0053473Y0204049D01*
X0053494Y0204116D01*
X0053519Y0204181D01*
X0053548Y0204245D01*
X0053580Y0204308D01*
X0053616Y0204368D01*
X0053655Y0204426D01*
X0053697Y0204482D01*
X0053742Y0204536D01*
X0053790Y0204587D01*
X0053841Y0204635D01*
X0053895Y0204680D01*
X0053951Y0204722D01*
X0054009Y0204761D01*
X0054069Y0204797D01*
X0054132Y0204829D01*
X0054196Y0204858D01*
X0054261Y0204883D01*
X0054328Y0204904D01*
X0054396Y0204922D01*
X0054465Y0204935D01*
X0054534Y0204945D01*
X0054604Y0204951D01*
X0054674Y0204953D01*
X0054744Y0204951D01*
X0054814Y0204945D01*
X0054883Y0204935D01*
X0054952Y0204922D01*
X0055020Y0204904D01*
X0055087Y0204883D01*
X0055152Y0204858D01*
X0055216Y0204829D01*
X0055279Y0204797D01*
X0055339Y0204761D01*
X0055397Y0204722D01*
X0055453Y0204680D01*
X0055507Y0204635D01*
X0055558Y0204587D01*
X0055606Y0204536D01*
X0055651Y0204482D01*
X0055693Y0204426D01*
X0055732Y0204368D01*
X0055768Y0204308D01*
X0055800Y0204245D01*
X0055829Y0204181D01*
X0055854Y0204116D01*
X0055875Y0204049D01*
X0055893Y0203981D01*
X0055906Y0203912D01*
X0055916Y0203843D01*
X0055922Y0203773D01*
X0055924Y0203703D01*
X0055922Y0203633D01*
X0055916Y0203563D01*
X0055906Y0203494D01*
X0055893Y0203425D01*
X0055875Y0203357D01*
X0055854Y0203290D01*
X0055829Y0203225D01*
X0055800Y0203161D01*
X0055768Y0203098D01*
X0055732Y0203038D01*
X0055693Y0202980D01*
X0055651Y0202924D01*
X0055606Y0202870D01*
X0055558Y0202819D01*
X0055507Y0202771D01*
X0055453Y0202726D01*
X0055397Y0202684D01*
X0055339Y0202645D01*
X0055279Y0202609D01*
X0055216Y0202577D01*
X0055152Y0202548D01*
X0055087Y0202523D01*
X0055020Y0202502D01*
X0054952Y0202484D01*
X0054883Y0202471D01*
X0054814Y0202461D01*
X0054744Y0202455D01*
X0054674Y0202453D01*
X0054604Y0202455D01*
X0054534Y0202461D01*
X0054465Y0202471D01*
X0054396Y0202484D01*
X0054328Y0202502D01*
X0054261Y0202523D01*
X0054196Y0202548D01*
X0054132Y0202577D01*
X0054069Y0202609D01*
X0054009Y0202645D01*
X0053951Y0202684D01*
X0053895Y0202726D01*
X0053841Y0202771D01*
X0053790Y0202819D01*
X0053742Y0202870D01*
X0053697Y0202924D01*
X0053655Y0202980D01*
X0053616Y0203038D01*
X0053580Y0203098D01*
X0053548Y0203161D01*
X0053519Y0203225D01*
X0053494Y0203290D01*
X0053473Y0203357D01*
X0053455Y0203425D01*
X0053442Y0203494D01*
X0053432Y0203563D01*
X0053426Y0203633D01*
X0053424Y0203703D01*
X0037676Y0203703D02*
X0037678Y0203773D01*
X0037684Y0203843D01*
X0037694Y0203912D01*
X0037707Y0203981D01*
X0037725Y0204049D01*
X0037746Y0204116D01*
X0037771Y0204181D01*
X0037800Y0204245D01*
X0037832Y0204308D01*
X0037868Y0204368D01*
X0037907Y0204426D01*
X0037949Y0204482D01*
X0037994Y0204536D01*
X0038042Y0204587D01*
X0038093Y0204635D01*
X0038147Y0204680D01*
X0038203Y0204722D01*
X0038261Y0204761D01*
X0038321Y0204797D01*
X0038384Y0204829D01*
X0038448Y0204858D01*
X0038513Y0204883D01*
X0038580Y0204904D01*
X0038648Y0204922D01*
X0038717Y0204935D01*
X0038786Y0204945D01*
X0038856Y0204951D01*
X0038926Y0204953D01*
X0038996Y0204951D01*
X0039066Y0204945D01*
X0039135Y0204935D01*
X0039204Y0204922D01*
X0039272Y0204904D01*
X0039339Y0204883D01*
X0039404Y0204858D01*
X0039468Y0204829D01*
X0039531Y0204797D01*
X0039591Y0204761D01*
X0039649Y0204722D01*
X0039705Y0204680D01*
X0039759Y0204635D01*
X0039810Y0204587D01*
X0039858Y0204536D01*
X0039903Y0204482D01*
X0039945Y0204426D01*
X0039984Y0204368D01*
X0040020Y0204308D01*
X0040052Y0204245D01*
X0040081Y0204181D01*
X0040106Y0204116D01*
X0040127Y0204049D01*
X0040145Y0203981D01*
X0040158Y0203912D01*
X0040168Y0203843D01*
X0040174Y0203773D01*
X0040176Y0203703D01*
X0040174Y0203633D01*
X0040168Y0203563D01*
X0040158Y0203494D01*
X0040145Y0203425D01*
X0040127Y0203357D01*
X0040106Y0203290D01*
X0040081Y0203225D01*
X0040052Y0203161D01*
X0040020Y0203098D01*
X0039984Y0203038D01*
X0039945Y0202980D01*
X0039903Y0202924D01*
X0039858Y0202870D01*
X0039810Y0202819D01*
X0039759Y0202771D01*
X0039705Y0202726D01*
X0039649Y0202684D01*
X0039591Y0202645D01*
X0039531Y0202609D01*
X0039468Y0202577D01*
X0039404Y0202548D01*
X0039339Y0202523D01*
X0039272Y0202502D01*
X0039204Y0202484D01*
X0039135Y0202471D01*
X0039066Y0202461D01*
X0038996Y0202455D01*
X0038926Y0202453D01*
X0038856Y0202455D01*
X0038786Y0202461D01*
X0038717Y0202471D01*
X0038648Y0202484D01*
X0038580Y0202502D01*
X0038513Y0202523D01*
X0038448Y0202548D01*
X0038384Y0202577D01*
X0038321Y0202609D01*
X0038261Y0202645D01*
X0038203Y0202684D01*
X0038147Y0202726D01*
X0038093Y0202771D01*
X0038042Y0202819D01*
X0037994Y0202870D01*
X0037949Y0202924D01*
X0037907Y0202980D01*
X0037868Y0203038D01*
X0037832Y0203098D01*
X0037800Y0203161D01*
X0037771Y0203225D01*
X0037746Y0203290D01*
X0037725Y0203357D01*
X0037707Y0203425D01*
X0037694Y0203494D01*
X0037684Y0203563D01*
X0037678Y0203633D01*
X0037676Y0203703D01*
D25*
X0086800Y0196144D03*
X0086800Y0186144D03*
X0086800Y0176144D03*
X0086800Y0166144D03*
X0086800Y0156144D03*
X0086800Y0146144D03*
X0086800Y0136144D03*
X0086800Y0126144D03*
X0086800Y0116144D03*
X0086800Y0106144D03*
X0086800Y0096144D03*
X0086800Y0086144D03*
X0086800Y0076144D03*
X0086800Y0066144D03*
X0086800Y0056144D03*
X0086800Y0046144D03*
D26*
X0088895Y0041925D02*
X0089500Y0041925D01*
X0089462Y0042160D02*
X0089500Y0042197D01*
X0089500Y0026144D01*
X0089448Y0025617D01*
X0089045Y0024644D01*
X0088300Y0023899D01*
X0087327Y0023496D01*
X0086800Y0023444D01*
X0006800Y0023444D01*
X0006273Y0023496D01*
X0005300Y0023899D01*
X0004555Y0024644D01*
X0004152Y0025617D01*
X0004136Y0025781D01*
X0006704Y0025781D01*
X0006704Y0029267D01*
X0006876Y0029267D01*
X0006876Y0029439D01*
X0011513Y0029439D01*
X0011513Y0031361D01*
X0011391Y0031819D01*
X0011154Y0032230D01*
X0010819Y0032565D01*
X0010789Y0032582D01*
X0011113Y0032907D01*
X0011113Y0034244D01*
X0022587Y0034244D01*
X0023700Y0035357D01*
X0023700Y0044363D01*
X0023969Y0044094D01*
X0046163Y0044094D01*
X0050993Y0039264D01*
X0052567Y0039264D01*
X0063513Y0039264D01*
X0068519Y0039264D01*
X0067498Y0038841D01*
X0066603Y0037946D01*
X0066119Y0036777D01*
X0066119Y0035511D01*
X0066603Y0034342D01*
X0067498Y0033447D01*
X0068667Y0032963D01*
X0069933Y0032963D01*
X0070887Y0033358D01*
X0072487Y0033358D01*
X0072487Y0032907D01*
X0073088Y0032305D01*
X0072487Y0031704D01*
X0072487Y0030544D01*
X0065087Y0030544D01*
X0064981Y0030650D01*
X0064981Y0031777D01*
X0064497Y0032946D01*
X0063602Y0033841D01*
X0062433Y0034325D01*
X0061167Y0034325D01*
X0059998Y0033841D01*
X0059103Y0032946D01*
X0058619Y0031777D01*
X0058619Y0030511D01*
X0059103Y0029342D01*
X0059998Y0028447D01*
X0061167Y0027963D01*
X0062294Y0027963D01*
X0063513Y0026744D01*
X0072744Y0026744D01*
X0073307Y0026181D01*
X0080313Y0026181D01*
X0081133Y0027001D01*
X0081133Y0027790D01*
X0081200Y0027857D01*
X0083700Y0030357D01*
X0083700Y0042597D01*
X0084138Y0042160D01*
X0085865Y0041444D01*
X0087735Y0041444D01*
X0089462Y0042160D01*
X0089500Y0040326D02*
X0083700Y0040326D01*
X0083700Y0038728D02*
X0089500Y0038728D01*
X0089500Y0037129D02*
X0083700Y0037129D01*
X0083700Y0035531D02*
X0089500Y0035531D01*
X0089500Y0033932D02*
X0083700Y0033932D01*
X0083700Y0032334D02*
X0089500Y0032334D01*
X0089500Y0030735D02*
X0083700Y0030735D01*
X0082480Y0029137D02*
X0089500Y0029137D01*
X0089500Y0027538D02*
X0081133Y0027538D01*
X0083700Y0041925D02*
X0084705Y0041925D01*
X0081133Y0053164D02*
X0081133Y0055326D01*
X0080532Y0055928D01*
X0081133Y0056529D01*
X0081133Y0061232D01*
X0080532Y0061833D01*
X0081133Y0062434D01*
X0081133Y0067137D01*
X0080532Y0067739D01*
X0081133Y0068340D01*
X0081133Y0073043D01*
X0080808Y0073368D01*
X0080838Y0073385D01*
X0081173Y0073720D01*
X0081410Y0074130D01*
X0081533Y0074588D01*
X0081533Y0076511D01*
X0076896Y0076511D01*
X0076896Y0076683D01*
X0076724Y0076683D01*
X0076724Y0080168D01*
X0073650Y0080168D01*
X0073192Y0080046D01*
X0072781Y0079809D01*
X0072446Y0079474D01*
X0072209Y0079063D01*
X0072087Y0078605D01*
X0072087Y0076683D01*
X0076724Y0076683D01*
X0076724Y0076511D01*
X0072087Y0076511D01*
X0072087Y0074588D01*
X0072209Y0074130D01*
X0072446Y0073720D01*
X0072781Y0073385D01*
X0072811Y0073368D01*
X0072488Y0073044D01*
X0070087Y0073044D01*
X0068700Y0074431D01*
X0068700Y0085316D01*
X0069103Y0084342D01*
X0069998Y0083447D01*
X0071167Y0082963D01*
X0072433Y0082963D01*
X0073602Y0083447D01*
X0074399Y0084244D01*
X0082500Y0084244D01*
X0082816Y0083482D01*
X0084138Y0082160D01*
X0085865Y0081444D01*
X0087735Y0081444D01*
X0089462Y0082160D01*
X0089500Y0082197D01*
X0089500Y0080486D01*
X0089473Y0080506D01*
X0088758Y0080870D01*
X0087994Y0081119D01*
X0087201Y0081244D01*
X0086984Y0081244D01*
X0086984Y0076328D01*
X0086616Y0076328D01*
X0086616Y0075960D01*
X0086984Y0075960D01*
X0086984Y0071044D01*
X0087201Y0071044D01*
X0087994Y0071170D01*
X0088758Y0071418D01*
X0089473Y0071782D01*
X0089500Y0071802D01*
X0089500Y0070091D01*
X0089462Y0070129D01*
X0087735Y0070844D01*
X0085865Y0070844D01*
X0084138Y0070129D01*
X0082816Y0068806D01*
X0082100Y0067079D01*
X0082100Y0065209D01*
X0082816Y0063482D01*
X0084138Y0062160D01*
X0085865Y0061444D01*
X0087735Y0061444D01*
X0089462Y0062160D01*
X0089500Y0062197D01*
X0089500Y0060091D01*
X0089462Y0060129D01*
X0087735Y0060844D01*
X0085865Y0060844D01*
X0084138Y0060129D01*
X0082816Y0058806D01*
X0082100Y0057079D01*
X0082100Y0055209D01*
X0082416Y0054447D01*
X0081133Y0053164D01*
X0081133Y0054713D02*
X0082306Y0054713D01*
X0082100Y0056311D02*
X0080916Y0056311D01*
X0081133Y0057910D02*
X0082444Y0057910D01*
X0083517Y0059508D02*
X0081133Y0059508D01*
X0081133Y0061107D02*
X0089500Y0061107D01*
X0089500Y0070698D02*
X0088088Y0070698D01*
X0086616Y0071044D02*
X0086616Y0075960D01*
X0081700Y0075960D01*
X0081700Y0075743D01*
X0081826Y0074950D01*
X0082074Y0074186D01*
X0082438Y0073471D01*
X0082910Y0072822D01*
X0083478Y0072254D01*
X0084127Y0071782D01*
X0084842Y0071418D01*
X0085606Y0071170D01*
X0086399Y0071044D01*
X0086616Y0071044D01*
X0085512Y0070698D02*
X0081133Y0070698D01*
X0081133Y0072296D02*
X0083435Y0072296D01*
X0083109Y0069099D02*
X0081133Y0069099D01*
X0080770Y0067501D02*
X0082275Y0067501D01*
X0082100Y0065902D02*
X0081133Y0065902D01*
X0081133Y0064304D02*
X0082475Y0064304D01*
X0083592Y0062705D02*
X0081133Y0062705D01*
X0081274Y0073895D02*
X0082222Y0073895D01*
X0081739Y0075493D02*
X0081533Y0075493D01*
X0081700Y0076328D02*
X0086616Y0076328D01*
X0086616Y0081244D01*
X0086399Y0081244D01*
X0085606Y0081119D01*
X0084842Y0080870D01*
X0084127Y0080506D01*
X0083478Y0080034D01*
X0082910Y0079467D01*
X0082438Y0078817D01*
X0082074Y0078102D01*
X0081826Y0077338D01*
X0081700Y0076545D01*
X0081700Y0076328D01*
X0081533Y0076683D02*
X0081533Y0078605D01*
X0081410Y0079063D01*
X0081173Y0079474D01*
X0080838Y0079809D01*
X0080428Y0080046D01*
X0079970Y0080168D01*
X0076896Y0080168D01*
X0076896Y0076683D01*
X0081533Y0076683D01*
X0081533Y0077092D02*
X0081787Y0077092D01*
X0081510Y0078691D02*
X0082374Y0078691D01*
X0083828Y0080289D02*
X0068700Y0080289D01*
X0068700Y0078691D02*
X0072109Y0078691D01*
X0072087Y0077092D02*
X0068700Y0077092D01*
X0068700Y0075493D02*
X0072087Y0075493D01*
X0072345Y0073895D02*
X0069236Y0073895D01*
X0068700Y0081888D02*
X0084795Y0081888D01*
X0086616Y0080289D02*
X0086984Y0080289D01*
X0086984Y0078691D02*
X0086616Y0078691D01*
X0086616Y0077092D02*
X0086984Y0077092D01*
X0086984Y0075493D02*
X0086616Y0075493D01*
X0086616Y0073895D02*
X0086984Y0073895D01*
X0086984Y0072296D02*
X0086616Y0072296D01*
X0088805Y0081888D02*
X0089500Y0081888D01*
X0082814Y0083486D02*
X0073641Y0083486D01*
X0076724Y0078691D02*
X0076896Y0078691D01*
X0076896Y0077092D02*
X0076724Y0077092D01*
X0069959Y0083486D02*
X0068700Y0083486D01*
X0068700Y0085085D02*
X0068796Y0085085D01*
X0062400Y0109906D02*
X0057224Y0109906D01*
X0056404Y0109086D01*
X0056404Y0103202D01*
X0057224Y0102382D01*
X0057447Y0102382D01*
X0057447Y0096863D01*
X0058167Y0096144D01*
X0057447Y0095425D01*
X0057447Y0090544D01*
X0056881Y0090544D01*
X0056881Y0094677D01*
X0056200Y0095358D01*
X0056200Y0099431D01*
X0055087Y0100544D01*
X0054399Y0100544D01*
X0053602Y0101341D01*
X0052433Y0101825D01*
X0051167Y0101825D01*
X0049998Y0101341D01*
X0049103Y0100446D01*
X0048619Y0099277D01*
X0048619Y0098011D01*
X0049103Y0096842D01*
X0049998Y0095947D01*
X0051086Y0095497D01*
X0050019Y0095497D01*
X0049545Y0095022D01*
X0049441Y0095202D01*
X0049106Y0095537D01*
X0048696Y0095774D01*
X0048238Y0095897D01*
X0045980Y0095897D01*
X0045980Y0091565D01*
X0045139Y0091565D01*
X0045139Y0095897D01*
X0044240Y0095897D01*
X0046200Y0097857D01*
X0046200Y0100357D01*
X0050087Y0104244D01*
X0051200Y0105357D01*
X0051200Y0111744D01*
X0060087Y0111744D01*
X0061200Y0112857D01*
X0061200Y0114117D01*
X0061374Y0114291D01*
X0066061Y0114291D01*
X0066881Y0115111D01*
X0066881Y0122177D01*
X0066061Y0122997D01*
X0065436Y0122997D01*
X0065523Y0123083D01*
X0065523Y0128968D01*
X0064703Y0129788D01*
X0061528Y0129788D01*
X0061488Y0129828D01*
X0061077Y0130065D01*
X0060620Y0130188D01*
X0059300Y0130188D01*
X0057980Y0130188D01*
X0057523Y0130065D01*
X0057112Y0129828D01*
X0057072Y0129788D01*
X0053897Y0129788D01*
X0053077Y0128968D01*
X0053077Y0123083D01*
X0053164Y0122997D01*
X0052539Y0122997D01*
X0051719Y0122177D01*
X0051719Y0120544D01*
X0051013Y0120544D01*
X0048513Y0118044D01*
X0046013Y0118044D01*
X0044900Y0116931D01*
X0044900Y0109431D01*
X0044053Y0108584D01*
X0044053Y0109464D01*
X0039721Y0109464D01*
X0039721Y0110305D01*
X0044053Y0110305D01*
X0044053Y0112562D01*
X0043930Y0113020D01*
X0043693Y0113430D01*
X0043358Y0113766D01*
X0043140Y0113891D01*
X0043218Y0113891D01*
X0043676Y0114014D01*
X0044086Y0114251D01*
X0044421Y0114586D01*
X0044658Y0114997D01*
X0044781Y0115454D01*
X0044781Y0118224D01*
X0040961Y0118224D01*
X0040961Y0119065D01*
X0040120Y0119065D01*
X0040120Y0123397D01*
X0037862Y0123397D01*
X0037404Y0123274D01*
X0036994Y0123037D01*
X0036659Y0122702D01*
X0036555Y0122522D01*
X0036081Y0122997D01*
X0035436Y0122997D01*
X0035523Y0123083D01*
X0035523Y0128968D01*
X0034703Y0129788D01*
X0031528Y0129788D01*
X0031488Y0129828D01*
X0031077Y0130065D01*
X0030620Y0130188D01*
X0029300Y0130188D01*
X0028531Y0130188D01*
X0030087Y0131744D01*
X0031110Y0132768D01*
X0031378Y0132500D01*
X0034703Y0132500D01*
X0035459Y0133256D01*
X0036167Y0132963D01*
X0037294Y0132963D01*
X0037400Y0132857D01*
X0037400Y0127857D01*
X0038513Y0126744D01*
X0040538Y0126744D01*
X0040538Y0124068D01*
X0041209Y0123397D01*
X0040961Y0123397D01*
X0040961Y0119065D01*
X0044781Y0119065D01*
X0044781Y0121834D01*
X0044658Y0122292D01*
X0044421Y0122702D01*
X0044086Y0123037D01*
X0043721Y0123248D01*
X0047242Y0123248D01*
X0048062Y0124068D01*
X0048062Y0129952D01*
X0047242Y0130772D01*
X0041358Y0130772D01*
X0041200Y0130615D01*
X0041200Y0131674D01*
X0041358Y0131516D01*
X0047242Y0131516D01*
X0048062Y0132336D01*
X0048062Y0138220D01*
X0048060Y0138223D01*
X0048602Y0138447D01*
X0049497Y0139342D01*
X0049981Y0140511D01*
X0049981Y0141777D01*
X0049930Y0141900D01*
X0050039Y0141791D01*
X0051160Y0141791D01*
X0051160Y0140357D01*
X0052273Y0139244D01*
X0053117Y0139244D01*
X0053077Y0139205D01*
X0053077Y0133320D01*
X0053897Y0132500D01*
X0057222Y0132500D01*
X0058043Y0133320D01*
X0058043Y0139205D01*
X0058003Y0139244D01*
X0060597Y0139244D01*
X0060557Y0139205D01*
X0060557Y0133320D01*
X0061378Y0132500D01*
X0064703Y0132500D01*
X0065523Y0133320D01*
X0065523Y0135730D01*
X0066167Y0135463D01*
X0067433Y0135463D01*
X0068602Y0135947D01*
X0069399Y0136744D01*
X0074900Y0136744D01*
X0074900Y0133725D01*
X0073267Y0133725D01*
X0072447Y0132905D01*
X0072447Y0129478D01*
X0072400Y0129431D01*
X0069900Y0126931D01*
X0069900Y0113044D01*
X0063513Y0113044D01*
X0062400Y0111931D01*
X0062400Y0109906D01*
X0062400Y0110661D02*
X0051200Y0110661D01*
X0051200Y0109062D02*
X0056404Y0109062D01*
X0056404Y0107464D02*
X0051200Y0107464D01*
X0051200Y0105865D02*
X0056404Y0105865D01*
X0056404Y0104267D02*
X0050110Y0104267D01*
X0049727Y0101070D02*
X0046913Y0101070D01*
X0046200Y0099471D02*
X0048699Y0099471D01*
X0048676Y0097873D02*
X0046200Y0097873D01*
X0045980Y0094676D02*
X0045139Y0094676D01*
X0045139Y0093077D02*
X0045980Y0093077D01*
X0044617Y0096274D02*
X0049671Y0096274D01*
X0048511Y0102668D02*
X0056938Y0102668D01*
X0057447Y0101070D02*
X0053873Y0101070D01*
X0056160Y0099471D02*
X0057447Y0099471D01*
X0057447Y0097873D02*
X0056200Y0097873D01*
X0056200Y0096274D02*
X0058037Y0096274D01*
X0057447Y0094676D02*
X0056881Y0094676D01*
X0056881Y0093077D02*
X0057447Y0093077D01*
X0057447Y0091479D02*
X0056881Y0091479D01*
X0054900Y0086744D02*
X0054900Y0080544D01*
X0051013Y0080544D01*
X0049900Y0079431D01*
X0047400Y0076931D01*
X0047400Y0070357D01*
X0049900Y0067857D01*
X0051013Y0066744D01*
X0057400Y0066744D01*
X0057400Y0057857D01*
X0058513Y0056744D01*
X0070971Y0056744D01*
X0069998Y0056341D01*
X0069103Y0055446D01*
X0068619Y0054277D01*
X0068619Y0053824D01*
X0068602Y0053841D01*
X0067433Y0054325D01*
X0066167Y0054325D01*
X0064998Y0053841D01*
X0064201Y0053044D01*
X0054981Y0053044D01*
X0054981Y0054277D01*
X0054497Y0055446D01*
X0053602Y0056341D01*
X0052433Y0056825D01*
X0051167Y0056825D01*
X0049998Y0056341D01*
X0049103Y0055446D01*
X0048700Y0054473D01*
X0048700Y0066931D01*
X0046200Y0069431D01*
X0046200Y0086391D01*
X0048238Y0086391D01*
X0048696Y0086514D01*
X0049106Y0086751D01*
X0049441Y0087086D01*
X0049545Y0087266D01*
X0050019Y0086791D01*
X0054706Y0086791D01*
X0054753Y0086744D01*
X0054900Y0086744D01*
X0054900Y0086683D02*
X0048988Y0086683D01*
X0050758Y0080289D02*
X0046200Y0080289D01*
X0046200Y0078691D02*
X0049159Y0078691D01*
X0047561Y0077092D02*
X0046200Y0077092D01*
X0046200Y0075493D02*
X0047400Y0075493D01*
X0047400Y0073895D02*
X0046200Y0073895D01*
X0046200Y0072296D02*
X0047400Y0072296D01*
X0047400Y0070698D02*
X0046200Y0070698D01*
X0046532Y0069099D02*
X0048658Y0069099D01*
X0048130Y0067501D02*
X0050256Y0067501D01*
X0048700Y0065902D02*
X0057400Y0065902D01*
X0057400Y0064304D02*
X0048700Y0064304D01*
X0048700Y0062705D02*
X0057400Y0062705D01*
X0057400Y0061107D02*
X0048700Y0061107D01*
X0048700Y0059508D02*
X0057400Y0059508D01*
X0057400Y0057910D02*
X0048700Y0057910D01*
X0048700Y0056311D02*
X0049968Y0056311D01*
X0048799Y0054713D02*
X0048700Y0054713D01*
X0053631Y0056311D02*
X0069968Y0056311D01*
X0068799Y0054713D02*
X0054801Y0054713D01*
X0054981Y0053114D02*
X0064271Y0053114D01*
X0067385Y0038728D02*
X0023700Y0038728D01*
X0023700Y0040326D02*
X0049931Y0040326D01*
X0048332Y0041925D02*
X0023700Y0041925D01*
X0023700Y0043523D02*
X0046734Y0043523D01*
X0058850Y0032334D02*
X0011050Y0032334D01*
X0011113Y0033932D02*
X0060218Y0033932D01*
X0058619Y0030735D02*
X0011513Y0030735D01*
X0011513Y0029267D02*
X0006876Y0029267D01*
X0006876Y0025781D01*
X0009950Y0025781D01*
X0010408Y0025904D01*
X0010819Y0026141D01*
X0011154Y0026476D01*
X0011391Y0026886D01*
X0011513Y0027344D01*
X0011513Y0029267D01*
X0011513Y0029137D02*
X0059309Y0029137D01*
X0062719Y0027538D02*
X0011513Y0027538D01*
X0010470Y0025940D02*
X0089480Y0025940D01*
X0088742Y0024341D02*
X0004858Y0024341D01*
X0006704Y0025940D02*
X0006876Y0025940D01*
X0006876Y0027538D02*
X0006704Y0027538D01*
X0006704Y0029137D02*
X0006876Y0029137D01*
X0010896Y0055544D02*
X0010789Y0055651D01*
X0010819Y0055668D01*
X0011154Y0056003D01*
X0011391Y0056414D01*
X0011513Y0056872D01*
X0011513Y0058794D01*
X0006876Y0058794D01*
X0006876Y0058966D01*
X0011513Y0058966D01*
X0011513Y0060889D01*
X0011391Y0061347D01*
X0011154Y0061757D01*
X0010819Y0062092D01*
X0010789Y0062110D01*
X0011113Y0062434D01*
X0011113Y0062770D01*
X0011200Y0062857D01*
X0011200Y0064244D01*
X0012587Y0064244D01*
X0016200Y0067857D01*
X0016200Y0071744D01*
X0021701Y0071744D01*
X0022498Y0070947D01*
X0023471Y0070544D01*
X0021013Y0070544D01*
X0019900Y0069431D01*
X0017400Y0066931D01*
X0017400Y0056931D01*
X0016013Y0055544D01*
X0010896Y0055544D01*
X0011332Y0056311D02*
X0016780Y0056311D01*
X0017400Y0057910D02*
X0011513Y0057910D01*
X0011513Y0059508D02*
X0017400Y0059508D01*
X0017400Y0061107D02*
X0011455Y0061107D01*
X0011113Y0062705D02*
X0017400Y0062705D01*
X0017400Y0064304D02*
X0012647Y0064304D01*
X0014245Y0065902D02*
X0017400Y0065902D01*
X0017970Y0067501D02*
X0015844Y0067501D01*
X0016200Y0069099D02*
X0019568Y0069099D01*
X0016200Y0070698D02*
X0023100Y0070698D01*
X0019201Y0103044D02*
X0018672Y0103044D01*
X0018672Y0104480D01*
X0017852Y0105300D01*
X0011700Y0105300D01*
X0011700Y0106744D01*
X0012804Y0106744D01*
X0013048Y0106988D01*
X0017852Y0106988D01*
X0018672Y0107808D01*
X0018672Y0114480D01*
X0017852Y0115300D01*
X0016200Y0115300D01*
X0016200Y0120663D01*
X0018880Y0120663D01*
X0018880Y0124483D01*
X0019720Y0124483D01*
X0019720Y0120663D01*
X0022490Y0120663D01*
X0022948Y0120786D01*
X0023358Y0121023D01*
X0023693Y0121358D01*
X0023930Y0121768D01*
X0024053Y0122226D01*
X0024053Y0122263D01*
X0027072Y0122263D01*
X0027112Y0122223D01*
X0027523Y0121986D01*
X0027980Y0121863D01*
X0029219Y0121863D01*
X0029219Y0118044D01*
X0026013Y0118044D01*
X0024900Y0116931D01*
X0019900Y0111931D01*
X0019900Y0110357D01*
X0019900Y0103743D01*
X0019201Y0103044D01*
X0018672Y0104267D02*
X0019900Y0104267D01*
X0019900Y0105865D02*
X0011700Y0105865D01*
X0016200Y0115456D02*
X0023425Y0115456D01*
X0025024Y0117055D02*
X0016200Y0117055D01*
X0016200Y0118653D02*
X0029219Y0118653D01*
X0029219Y0120252D02*
X0016200Y0120252D01*
X0018880Y0121850D02*
X0019720Y0121850D01*
X0019720Y0123449D02*
X0018880Y0123449D01*
X0018672Y0113858D02*
X0021827Y0113858D01*
X0020228Y0112259D02*
X0018672Y0112259D01*
X0018672Y0110661D02*
X0019900Y0110661D01*
X0019900Y0109062D02*
X0018672Y0109062D01*
X0018328Y0107464D02*
X0019900Y0107464D01*
X0023952Y0121850D02*
X0029219Y0121850D01*
X0029300Y0122258D02*
X0029300Y0126025D01*
X0029300Y0122258D01*
X0029300Y0122258D01*
X0029300Y0123449D02*
X0029300Y0123449D01*
X0029300Y0125047D02*
X0029300Y0125047D01*
X0029300Y0126025D02*
X0029300Y0126025D01*
X0029300Y0126026D02*
X0029300Y0130188D01*
X0029300Y0126026D01*
X0029300Y0126026D01*
X0029300Y0126646D02*
X0029300Y0126646D01*
X0029300Y0128244D02*
X0029300Y0128244D01*
X0029300Y0129843D02*
X0029300Y0129843D01*
X0029784Y0131441D02*
X0037400Y0131441D01*
X0037400Y0129843D02*
X0031462Y0129843D01*
X0035523Y0128244D02*
X0037400Y0128244D01*
X0035523Y0126646D02*
X0040538Y0126646D01*
X0040538Y0125047D02*
X0035523Y0125047D01*
X0035523Y0123449D02*
X0041157Y0123449D01*
X0040961Y0121850D02*
X0040120Y0121850D01*
X0040120Y0120252D02*
X0040961Y0120252D01*
X0040961Y0118653D02*
X0049122Y0118653D01*
X0050721Y0120252D02*
X0044781Y0120252D01*
X0044777Y0121850D02*
X0051719Y0121850D01*
X0053077Y0123449D02*
X0047443Y0123449D01*
X0048062Y0125047D02*
X0053077Y0125047D01*
X0053077Y0126646D02*
X0048062Y0126646D01*
X0048062Y0128244D02*
X0053077Y0128244D01*
X0053358Y0133040D02*
X0048062Y0133040D01*
X0048062Y0134638D02*
X0053077Y0134638D01*
X0053077Y0136237D02*
X0048062Y0136237D01*
X0048062Y0137835D02*
X0053077Y0137835D01*
X0052083Y0139434D02*
X0049535Y0139434D01*
X0049981Y0141032D02*
X0051160Y0141032D01*
X0048062Y0129843D02*
X0057138Y0129843D01*
X0059300Y0129843D02*
X0059300Y0129843D01*
X0059300Y0130188D02*
X0059300Y0126026D01*
X0059300Y0126026D01*
X0059300Y0130188D01*
X0059300Y0128244D02*
X0059300Y0128244D01*
X0059300Y0126646D02*
X0059300Y0126646D01*
X0061462Y0129843D02*
X0072447Y0129843D01*
X0072447Y0131441D02*
X0041200Y0131441D01*
X0035982Y0133040D02*
X0035242Y0133040D01*
X0036555Y0114766D02*
X0036659Y0114586D01*
X0036994Y0114251D01*
X0037212Y0114125D01*
X0036110Y0114125D01*
X0035652Y0114003D01*
X0035242Y0113766D01*
X0034907Y0113430D01*
X0034670Y0113020D01*
X0034547Y0112562D01*
X0034547Y0110305D01*
X0038879Y0110305D01*
X0038879Y0109464D01*
X0034547Y0109464D01*
X0034547Y0107206D01*
X0034670Y0106749D01*
X0034907Y0106338D01*
X0035242Y0106003D01*
X0035422Y0105899D01*
X0034947Y0105425D01*
X0034947Y0103044D01*
X0033513Y0103044D01*
X0033239Y0102770D01*
X0033239Y0104480D01*
X0032419Y0105300D01*
X0030983Y0105300D01*
X0030983Y0106988D01*
X0032419Y0106988D01*
X0033239Y0107808D01*
X0033239Y0114291D01*
X0036081Y0114291D01*
X0036555Y0114766D01*
X0035402Y0113858D02*
X0033239Y0113858D01*
X0033239Y0112259D02*
X0034547Y0112259D01*
X0034547Y0110661D02*
X0033239Y0110661D01*
X0033239Y0109062D02*
X0034547Y0109062D01*
X0034547Y0107464D02*
X0032895Y0107464D01*
X0033239Y0104267D02*
X0034947Y0104267D01*
X0035388Y0105865D02*
X0030983Y0105865D01*
X0043198Y0113858D02*
X0044900Y0113858D01*
X0044900Y0115456D02*
X0044781Y0115456D01*
X0044781Y0117055D02*
X0045024Y0117055D01*
X0044900Y0112259D02*
X0044053Y0112259D01*
X0044053Y0110661D02*
X0044900Y0110661D01*
X0044531Y0109062D02*
X0044053Y0109062D01*
X0046200Y0085085D02*
X0054900Y0085085D01*
X0054900Y0083486D02*
X0046200Y0083486D01*
X0046200Y0081888D02*
X0054900Y0081888D01*
X0060602Y0112259D02*
X0062728Y0112259D01*
X0061200Y0113858D02*
X0069900Y0113858D01*
X0069900Y0115456D02*
X0066881Y0115456D01*
X0066881Y0117055D02*
X0069900Y0117055D01*
X0069900Y0118653D02*
X0066881Y0118653D01*
X0066881Y0120252D02*
X0069900Y0120252D01*
X0069900Y0121850D02*
X0066881Y0121850D01*
X0065523Y0123449D02*
X0069900Y0123449D01*
X0069900Y0125047D02*
X0065523Y0125047D01*
X0065523Y0126646D02*
X0069900Y0126646D01*
X0071213Y0128244D02*
X0065523Y0128244D01*
X0065242Y0133040D02*
X0072582Y0133040D01*
X0074900Y0134638D02*
X0065523Y0134638D01*
X0068892Y0136237D02*
X0074900Y0136237D01*
X0069713Y0140544D02*
X0069399Y0140544D01*
X0068602Y0141341D01*
X0067433Y0141825D01*
X0066306Y0141825D01*
X0065087Y0143044D01*
X0064781Y0143044D01*
X0064781Y0145724D01*
X0060961Y0145724D01*
X0060961Y0146565D01*
X0064781Y0146565D01*
X0064781Y0149334D01*
X0064658Y0149792D01*
X0064421Y0150202D01*
X0064086Y0150537D01*
X0063676Y0150774D01*
X0063218Y0150897D01*
X0061881Y0150897D01*
X0061881Y0154902D01*
X0066199Y0154902D01*
X0066523Y0155226D01*
X0066541Y0155196D01*
X0066876Y0154861D01*
X0067286Y0154624D01*
X0067744Y0154502D01*
X0069864Y0154502D01*
X0069864Y0157987D01*
X0070035Y0157987D01*
X0070035Y0154502D01*
X0072155Y0154502D01*
X0072400Y0154567D01*
X0072400Y0151931D01*
X0067400Y0146931D01*
X0067400Y0145357D01*
X0067400Y0142857D01*
X0068513Y0141744D01*
X0069713Y0140544D01*
X0069225Y0141032D02*
X0068910Y0141032D01*
X0068513Y0141744D02*
X0068513Y0141744D01*
X0067626Y0142631D02*
X0065500Y0142631D01*
X0064781Y0144229D02*
X0067400Y0144229D01*
X0067400Y0145828D02*
X0060961Y0145828D01*
X0063937Y0150624D02*
X0071092Y0150624D01*
X0069494Y0149025D02*
X0064781Y0149025D01*
X0064781Y0147426D02*
X0067895Y0147426D01*
X0069864Y0155419D02*
X0070035Y0155419D01*
X0070035Y0157018D02*
X0069864Y0157018D01*
X0069864Y0158159D02*
X0069864Y0161645D01*
X0068700Y0161645D01*
X0068700Y0168647D01*
X0068765Y0168872D01*
X0068700Y0168990D01*
X0068700Y0169431D01*
X0068158Y0169973D01*
X0067789Y0170643D01*
X0069864Y0170643D01*
X0069864Y0174129D01*
X0070035Y0174129D01*
X0070035Y0170643D01*
X0072155Y0170643D01*
X0072613Y0170766D01*
X0073023Y0171003D01*
X0073358Y0171338D01*
X0073595Y0171749D01*
X0073718Y0172206D01*
X0073718Y0174039D01*
X0074900Y0172857D01*
X0074900Y0169431D01*
X0071013Y0165544D01*
X0069900Y0164431D01*
X0069900Y0162857D01*
X0071112Y0161645D01*
X0070035Y0161645D01*
X0070035Y0158159D01*
X0069864Y0158159D01*
X0069864Y0158616D02*
X0070035Y0158616D01*
X0070035Y0160215D02*
X0069864Y0160215D01*
X0070944Y0161813D02*
X0068700Y0161813D01*
X0068700Y0163412D02*
X0069900Y0163412D01*
X0070479Y0165010D02*
X0068700Y0165010D01*
X0068700Y0166609D02*
X0072078Y0166609D01*
X0073676Y0168207D02*
X0068700Y0168207D01*
X0068325Y0169806D02*
X0074900Y0169806D01*
X0074900Y0171404D02*
X0073397Y0171404D01*
X0073718Y0173003D02*
X0074754Y0173003D01*
X0070035Y0173003D02*
X0069864Y0173003D01*
X0069864Y0171404D02*
X0070035Y0171404D01*
X0064900Y0165316D02*
X0064900Y0161931D01*
X0064214Y0161245D01*
X0061102Y0161245D01*
X0060401Y0160544D01*
X0057587Y0160544D01*
X0057275Y0160856D01*
X0057275Y0164381D01*
X0056455Y0165202D01*
X0052145Y0165202D01*
X0051325Y0164381D01*
X0051325Y0160856D01*
X0049900Y0159431D01*
X0049900Y0157997D01*
X0047539Y0157997D01*
X0046719Y0157177D01*
X0046719Y0155724D01*
X0046200Y0156243D01*
X0046200Y0157087D01*
X0046455Y0157087D01*
X0047275Y0157907D01*
X0047275Y0164381D01*
X0046455Y0165202D01*
X0042145Y0165202D01*
X0041325Y0164381D01*
X0041325Y0157907D01*
X0042145Y0157087D01*
X0042400Y0157087D01*
X0042400Y0156243D01*
X0041603Y0155446D01*
X0041200Y0154473D01*
X0041200Y0156931D01*
X0040087Y0158044D01*
X0036013Y0158044D01*
X0034900Y0156931D01*
X0033603Y0155634D01*
X0033718Y0156065D01*
X0033718Y0157987D01*
X0030036Y0157987D01*
X0030036Y0158159D01*
X0033718Y0158159D01*
X0033718Y0160082D01*
X0033595Y0160540D01*
X0033358Y0160950D01*
X0033023Y0161285D01*
X0032613Y0161522D01*
X0032155Y0161645D01*
X0030035Y0161645D01*
X0030035Y0158159D01*
X0029864Y0158159D01*
X0029864Y0161521D01*
X0032144Y0163801D01*
X0032498Y0163447D01*
X0033667Y0162963D01*
X0034933Y0162963D01*
X0036102Y0163447D01*
X0036997Y0164342D01*
X0037481Y0165511D01*
X0037481Y0166777D01*
X0036997Y0167946D01*
X0036102Y0168841D01*
X0034933Y0169325D01*
X0033667Y0169325D01*
X0032498Y0168841D01*
X0031701Y0168044D01*
X0031013Y0168044D01*
X0029900Y0166931D01*
X0026013Y0163044D01*
X0022629Y0163044D01*
X0023602Y0163447D01*
X0024497Y0164342D01*
X0024981Y0165511D01*
X0024981Y0166777D01*
X0024497Y0167946D01*
X0023700Y0168743D01*
X0023700Y0171043D01*
X0026199Y0171043D01*
X0026523Y0171368D01*
X0026541Y0171338D01*
X0026876Y0171003D01*
X0027286Y0170766D01*
X0027744Y0170643D01*
X0029864Y0170643D01*
X0029864Y0174129D01*
X0030035Y0174129D01*
X0030035Y0170643D01*
X0032155Y0170643D01*
X0032613Y0170766D01*
X0033023Y0171003D01*
X0033358Y0171338D01*
X0033595Y0171749D01*
X0033718Y0172206D01*
X0033718Y0174129D01*
X0030036Y0174129D01*
X0030036Y0174301D01*
X0033718Y0174301D01*
X0033718Y0176224D01*
X0033595Y0176681D01*
X0033559Y0176744D01*
X0038513Y0176744D01*
X0041013Y0174244D01*
X0041325Y0174244D01*
X0041325Y0167907D01*
X0042145Y0167087D01*
X0046455Y0167087D01*
X0047275Y0167907D01*
X0047275Y0168671D01*
X0047498Y0168447D01*
X0048667Y0167963D01*
X0049933Y0167963D01*
X0051102Y0168447D01*
X0051325Y0168671D01*
X0051325Y0167907D01*
X0052145Y0167087D01*
X0056455Y0167087D01*
X0057275Y0167907D01*
X0057275Y0167982D01*
X0058619Y0166638D01*
X0058619Y0165511D01*
X0059103Y0164342D01*
X0059998Y0163447D01*
X0061167Y0162963D01*
X0062433Y0162963D01*
X0063602Y0163447D01*
X0064497Y0164342D01*
X0064900Y0165316D01*
X0064900Y0165010D02*
X0064773Y0165010D01*
X0064900Y0163412D02*
X0063516Y0163412D01*
X0064782Y0161813D02*
X0057275Y0161813D01*
X0057275Y0163412D02*
X0060084Y0163412D01*
X0058827Y0165010D02*
X0056646Y0165010D01*
X0058619Y0166609D02*
X0037481Y0166609D01*
X0037273Y0165010D02*
X0041954Y0165010D01*
X0041325Y0163412D02*
X0036016Y0163412D01*
X0036736Y0168207D02*
X0041325Y0168207D01*
X0041325Y0169806D02*
X0023700Y0169806D01*
X0024236Y0168207D02*
X0031864Y0168207D01*
X0033397Y0171404D02*
X0041325Y0171404D01*
X0041325Y0173003D02*
X0033718Y0173003D01*
X0033718Y0174601D02*
X0040656Y0174601D01*
X0039057Y0176200D02*
X0033718Y0176200D01*
X0030035Y0173003D02*
X0029864Y0173003D01*
X0029864Y0171404D02*
X0030035Y0171404D01*
X0029578Y0166609D02*
X0024981Y0166609D01*
X0024773Y0165010D02*
X0027979Y0165010D01*
X0026381Y0163412D02*
X0023516Y0163412D01*
X0029864Y0160215D02*
X0030035Y0160215D01*
X0030035Y0158616D02*
X0029864Y0158616D01*
X0030156Y0161813D02*
X0041325Y0161813D01*
X0041325Y0160215D02*
X0033683Y0160215D01*
X0033718Y0158616D02*
X0041325Y0158616D01*
X0041114Y0157018D02*
X0042400Y0157018D01*
X0041592Y0155419D02*
X0041200Y0155419D01*
X0046200Y0157018D02*
X0046719Y0157018D01*
X0047275Y0158616D02*
X0049900Y0158616D01*
X0050684Y0160215D02*
X0047275Y0160215D01*
X0047275Y0161813D02*
X0051325Y0161813D01*
X0051325Y0163412D02*
X0047275Y0163412D01*
X0046646Y0165010D02*
X0051954Y0165010D01*
X0051325Y0168207D02*
X0050522Y0168207D01*
X0048078Y0168207D02*
X0047275Y0168207D01*
X0037970Y0188044D02*
X0035630Y0188044D01*
X0035954Y0188368D01*
X0036700Y0190169D01*
X0036700Y0192119D01*
X0035954Y0193920D01*
X0034576Y0195298D01*
X0032775Y0196044D01*
X0030825Y0196044D01*
X0029024Y0195298D01*
X0027646Y0193920D01*
X0026981Y0192314D01*
X0026969Y0192385D01*
X0026712Y0193179D01*
X0026333Y0193922D01*
X0025843Y0194597D01*
X0025253Y0195187D01*
X0024578Y0195677D01*
X0023834Y0196056D01*
X0023041Y0196314D01*
X0022217Y0196444D01*
X0021984Y0196444D01*
X0021984Y0191328D01*
X0021616Y0191328D01*
X0021616Y0196444D01*
X0021383Y0196444D01*
X0020559Y0196314D01*
X0019766Y0196056D01*
X0019022Y0195677D01*
X0018347Y0195187D01*
X0017757Y0194597D01*
X0017267Y0193922D01*
X0016888Y0193179D01*
X0016858Y0193085D01*
X0016102Y0193841D01*
X0014933Y0194325D01*
X0013667Y0194325D01*
X0012498Y0193841D01*
X0011701Y0193044D01*
X0011013Y0193044D01*
X0008650Y0190681D01*
X0007775Y0191044D01*
X0005825Y0191044D01*
X0004100Y0190329D01*
X0004100Y0191959D01*
X0005825Y0191244D01*
X0007775Y0191244D01*
X0009576Y0191990D01*
X0010954Y0193368D01*
X0011700Y0195169D01*
X0011700Y0197119D01*
X0010954Y0198920D01*
X0009576Y0200298D01*
X0007775Y0201044D01*
X0005825Y0201044D01*
X0004100Y0200329D01*
X0004100Y0211144D01*
X0004195Y0212349D01*
X0004939Y0214640D01*
X0006355Y0216589D01*
X0008304Y0218005D01*
X0010595Y0218749D01*
X0011800Y0218844D01*
X0032049Y0218844D01*
X0031678Y0218596D01*
X0031148Y0218066D01*
X0030732Y0217444D01*
X0030446Y0216753D01*
X0030300Y0216018D01*
X0030300Y0213644D01*
X0030300Y0211270D01*
X0030446Y0210536D01*
X0030732Y0209844D01*
X0031148Y0209222D01*
X0031678Y0208692D01*
X0032300Y0208277D01*
X0032992Y0207990D01*
X0033726Y0207844D01*
X0034100Y0207844D01*
X0034474Y0207844D01*
X0035208Y0207990D01*
X0035900Y0208277D01*
X0036522Y0208692D01*
X0037052Y0209222D01*
X0037468Y0209844D01*
X0037754Y0210536D01*
X0037900Y0211270D01*
X0037900Y0213644D01*
X0034100Y0213644D01*
X0034100Y0207844D01*
X0034100Y0213644D01*
X0034100Y0213644D01*
X0034100Y0213644D01*
X0030300Y0213644D01*
X0034100Y0213644D01*
X0034100Y0213644D01*
X0037900Y0213644D01*
X0037900Y0216018D01*
X0037754Y0216753D01*
X0037468Y0217444D01*
X0037052Y0218066D01*
X0036522Y0218596D01*
X0036151Y0218844D01*
X0039197Y0218844D01*
X0038842Y0218489D01*
X0038483Y0217952D01*
X0038236Y0217356D01*
X0038110Y0216723D01*
X0038110Y0215600D01*
X0042187Y0215600D01*
X0042187Y0214247D01*
X0043539Y0214247D01*
X0043539Y0210171D01*
X0044662Y0210171D01*
X0045295Y0210297D01*
X0045891Y0210544D01*
X0046428Y0210902D01*
X0046800Y0211274D01*
X0047172Y0210902D01*
X0047709Y0210544D01*
X0048305Y0210297D01*
X0048938Y0210171D01*
X0050061Y0210171D01*
X0050061Y0214247D01*
X0051413Y0214247D01*
X0051413Y0210171D01*
X0052536Y0210171D01*
X0053169Y0210297D01*
X0053765Y0210544D01*
X0054302Y0210902D01*
X0054758Y0211359D01*
X0055117Y0211895D01*
X0055364Y0212492D01*
X0055490Y0213125D01*
X0055490Y0214247D01*
X0051413Y0214247D01*
X0051413Y0215600D01*
X0055490Y0215600D01*
X0055490Y0216723D01*
X0055364Y0217356D01*
X0055117Y0217952D01*
X0054758Y0218489D01*
X0054403Y0218844D01*
X0057449Y0218844D01*
X0057078Y0218596D01*
X0056548Y0218066D01*
X0056132Y0217444D01*
X0055846Y0216753D01*
X0055700Y0216018D01*
X0055700Y0213644D01*
X0055700Y0211270D01*
X0055846Y0210536D01*
X0056132Y0209844D01*
X0056548Y0209222D01*
X0057078Y0208692D01*
X0057700Y0208277D01*
X0058392Y0207990D01*
X0059126Y0207844D01*
X0059500Y0207844D01*
X0059874Y0207844D01*
X0060608Y0207990D01*
X0061300Y0208277D01*
X0061922Y0208692D01*
X0062452Y0209222D01*
X0062868Y0209844D01*
X0063154Y0210536D01*
X0063300Y0211270D01*
X0063300Y0213644D01*
X0059500Y0213644D01*
X0059500Y0207844D01*
X0059500Y0213644D01*
X0059500Y0213644D01*
X0059500Y0213644D01*
X0055700Y0213644D01*
X0059500Y0213644D01*
X0059500Y0213644D01*
X0063300Y0213644D01*
X0063300Y0216018D01*
X0063154Y0216753D01*
X0062868Y0217444D01*
X0062452Y0218066D01*
X0061922Y0218596D01*
X0061551Y0218844D01*
X0081800Y0218844D01*
X0083005Y0218749D01*
X0085296Y0218005D01*
X0087245Y0216589D01*
X0088661Y0214640D01*
X0089405Y0212349D01*
X0089500Y0211144D01*
X0089500Y0200091D01*
X0089462Y0200129D01*
X0087735Y0200844D01*
X0085865Y0200844D01*
X0084138Y0200129D01*
X0082816Y0198806D01*
X0082100Y0197079D01*
X0082100Y0195209D01*
X0082816Y0193482D01*
X0084138Y0192160D01*
X0085865Y0191444D01*
X0087735Y0191444D01*
X0089462Y0192160D01*
X0089500Y0192197D01*
X0089500Y0190091D01*
X0089462Y0190129D01*
X0087735Y0190844D01*
X0085865Y0190844D01*
X0085103Y0190528D01*
X0078700Y0196931D01*
X0078700Y0196931D01*
X0077587Y0198044D01*
X0066013Y0198044D01*
X0064900Y0196931D01*
X0063650Y0195681D01*
X0062775Y0196044D01*
X0060825Y0196044D01*
X0059024Y0195298D01*
X0057646Y0193920D01*
X0056900Y0192119D01*
X0056900Y0190169D01*
X0057646Y0188368D01*
X0057970Y0188044D01*
X0057587Y0188044D01*
X0056337Y0189294D01*
X0056700Y0190169D01*
X0056700Y0192119D01*
X0055954Y0193920D01*
X0054576Y0195298D01*
X0053700Y0195661D01*
X0053700Y0198400D01*
X0054068Y0198768D01*
X0054068Y0200653D01*
X0055281Y0200653D01*
X0055329Y0200673D01*
X0055358Y0200524D01*
X0055598Y0199946D01*
X0055945Y0199426D01*
X0056387Y0198984D01*
X0056907Y0198637D01*
X0057485Y0198397D01*
X0058098Y0198275D01*
X0059611Y0198275D01*
X0059611Y0202250D01*
X0060761Y0202250D01*
X0060761Y0203400D01*
X0065135Y0203400D01*
X0065135Y0204513D01*
X0065013Y0205126D01*
X0064774Y0205704D01*
X0064427Y0206224D01*
X0063984Y0206666D01*
X0063464Y0207014D01*
X0062887Y0207253D01*
X0062273Y0207375D01*
X0060761Y0207375D01*
X0060761Y0203400D01*
X0059611Y0203400D01*
X0059611Y0207375D01*
X0058098Y0207375D01*
X0057485Y0207253D01*
X0056907Y0207014D01*
X0056387Y0206666D01*
X0056125Y0206404D01*
X0055281Y0206753D01*
X0054067Y0206753D01*
X0053505Y0206520D01*
X0053505Y0207775D01*
X0053037Y0208243D01*
X0040563Y0208243D01*
X0040094Y0207775D01*
X0040094Y0206565D01*
X0040050Y0206539D01*
X0039533Y0206753D01*
X0038319Y0206753D01*
X0037475Y0206404D01*
X0037213Y0206666D01*
X0036693Y0207014D01*
X0036115Y0207253D01*
X0035501Y0207375D01*
X0033989Y0207375D01*
X0033989Y0203400D01*
X0035876Y0203400D01*
X0035876Y0203096D01*
X0036227Y0202250D01*
X0033989Y0202250D01*
X0033989Y0198275D01*
X0035501Y0198275D01*
X0036115Y0198397D01*
X0036693Y0198637D01*
X0037213Y0198984D01*
X0037655Y0199426D01*
X0038002Y0199946D01*
X0038242Y0200524D01*
X0038271Y0200673D01*
X0038319Y0200653D01*
X0039132Y0200653D01*
X0039132Y0199217D01*
X0039280Y0198664D01*
X0039566Y0198168D01*
X0039971Y0197763D01*
X0040453Y0197485D01*
X0039900Y0196931D01*
X0039900Y0195661D01*
X0039024Y0195298D01*
X0037646Y0193920D01*
X0036900Y0192119D01*
X0036900Y0190169D01*
X0037646Y0188368D01*
X0037970Y0188044D01*
X0037389Y0188988D02*
X0036211Y0188988D01*
X0036700Y0190586D02*
X0036900Y0190586D01*
X0036927Y0192185D02*
X0036673Y0192185D01*
X0036011Y0193783D02*
X0037589Y0193783D01*
X0039227Y0195382D02*
X0034373Y0195382D01*
X0033989Y0198579D02*
X0032839Y0198579D01*
X0032839Y0198275D02*
X0032839Y0202250D01*
X0033989Y0202250D01*
X0033989Y0203400D01*
X0032839Y0203400D01*
X0032839Y0202250D01*
X0028465Y0202250D01*
X0028465Y0201137D01*
X0028587Y0200524D01*
X0028826Y0199946D01*
X0029173Y0199426D01*
X0029616Y0198984D01*
X0030136Y0198637D01*
X0030713Y0198397D01*
X0031327Y0198275D01*
X0032839Y0198275D01*
X0032839Y0200177D02*
X0033989Y0200177D01*
X0033989Y0201776D02*
X0032839Y0201776D01*
X0032839Y0203374D02*
X0004100Y0203374D01*
X0004100Y0201776D02*
X0028465Y0201776D01*
X0028730Y0200177D02*
X0009696Y0200177D01*
X0011095Y0198579D02*
X0030275Y0198579D01*
X0029227Y0195382D02*
X0024984Y0195382D01*
X0026404Y0193783D02*
X0027589Y0193783D01*
X0028465Y0203400D02*
X0032839Y0203400D01*
X0032839Y0207375D01*
X0031327Y0207375D01*
X0030713Y0207253D01*
X0030136Y0207014D01*
X0029616Y0206666D01*
X0029173Y0206224D01*
X0028826Y0205704D01*
X0028587Y0205126D01*
X0028465Y0204513D01*
X0028465Y0203400D01*
X0028556Y0204973D02*
X0015388Y0204973D01*
X0016351Y0205437D02*
X0016351Y0205437D01*
X0018377Y0207977D01*
X0019100Y0211144D01*
X0018377Y0214311D01*
X0018377Y0214311D01*
X0016351Y0216851D01*
X0013424Y0218261D01*
X0010176Y0218261D01*
X0007249Y0216851D01*
X0005223Y0214311D01*
X0004500Y0211144D01*
X0005223Y0207977D01*
X0005223Y0207977D01*
X0007249Y0205437D01*
X0010176Y0204027D01*
X0013424Y0204027D01*
X0016351Y0205437D01*
X0016351Y0205437D01*
X0017256Y0206571D02*
X0029521Y0206571D01*
X0030783Y0209768D02*
X0018786Y0209768D01*
X0019049Y0211367D02*
X0030300Y0211367D01*
X0030300Y0212965D02*
X0018684Y0212965D01*
X0018176Y0214564D02*
X0030300Y0214564D01*
X0030329Y0216162D02*
X0016901Y0216162D01*
X0016351Y0216851D02*
X0016351Y0216851D01*
X0014463Y0217761D02*
X0030944Y0217761D01*
X0034100Y0212965D02*
X0034100Y0212965D01*
X0034100Y0211367D02*
X0034100Y0211367D01*
X0034100Y0209768D02*
X0034100Y0209768D01*
X0034100Y0208170D02*
X0034100Y0208170D01*
X0033989Y0206571D02*
X0032839Y0206571D01*
X0032839Y0204973D02*
X0033989Y0204973D01*
X0033989Y0203374D02*
X0035876Y0203374D01*
X0037308Y0206571D02*
X0037881Y0206571D01*
X0037417Y0209768D02*
X0056183Y0209768D01*
X0055700Y0211367D02*
X0054764Y0211367D01*
X0055458Y0212965D02*
X0055700Y0212965D01*
X0055700Y0214564D02*
X0051413Y0214564D01*
X0050061Y0214564D02*
X0043539Y0214564D01*
X0043539Y0214247D02*
X0043539Y0215600D01*
X0047616Y0215600D01*
X0050061Y0215600D01*
X0050061Y0214247D01*
X0043539Y0214247D01*
X0043539Y0212965D02*
X0042187Y0212965D01*
X0042187Y0214247D02*
X0042187Y0210171D01*
X0041064Y0210171D01*
X0040431Y0210297D01*
X0039835Y0210544D01*
X0039298Y0210902D01*
X0038842Y0211359D01*
X0038483Y0211895D01*
X0038236Y0212492D01*
X0038110Y0213125D01*
X0038110Y0214247D01*
X0042187Y0214247D01*
X0042187Y0214564D02*
X0037900Y0214564D01*
X0037900Y0212965D02*
X0038142Y0212965D01*
X0037900Y0211367D02*
X0038836Y0211367D01*
X0040490Y0208170D02*
X0035642Y0208170D01*
X0038098Y0200177D02*
X0039132Y0200177D01*
X0039329Y0198579D02*
X0036553Y0198579D01*
X0039949Y0196980D02*
X0011700Y0196980D01*
X0011700Y0195382D02*
X0018616Y0195382D01*
X0017196Y0193783D02*
X0016160Y0193783D01*
X0012440Y0193783D02*
X0011126Y0193783D01*
X0010154Y0192185D02*
X0009770Y0192185D01*
X0004720Y0190586D02*
X0004100Y0190586D01*
X0004100Y0204973D02*
X0008212Y0204973D01*
X0006344Y0206571D02*
X0004100Y0206571D01*
X0004100Y0208170D02*
X0005179Y0208170D01*
X0004814Y0209768D02*
X0004100Y0209768D01*
X0004500Y0211144D02*
X0004500Y0211144D01*
X0004551Y0211367D02*
X0004118Y0211367D01*
X0004395Y0212965D02*
X0004916Y0212965D01*
X0005223Y0214311D02*
X0005223Y0214311D01*
X0005424Y0214564D02*
X0004915Y0214564D01*
X0006046Y0216162D02*
X0006699Y0216162D01*
X0007249Y0216851D02*
X0007249Y0216851D01*
X0007249Y0216851D01*
X0007969Y0217761D02*
X0009137Y0217761D01*
X0018421Y0208170D02*
X0032558Y0208170D01*
X0037256Y0217761D02*
X0038404Y0217761D01*
X0038110Y0216162D02*
X0037871Y0216162D01*
X0039971Y0206571D02*
X0040094Y0206571D01*
X0042187Y0211367D02*
X0043539Y0211367D01*
X0050061Y0211367D02*
X0051413Y0211367D01*
X0051413Y0212965D02*
X0050061Y0212965D01*
X0053110Y0208170D02*
X0057958Y0208170D01*
X0056292Y0206571D02*
X0055719Y0206571D01*
X0053629Y0206571D02*
X0053505Y0206571D01*
X0054068Y0200177D02*
X0055502Y0200177D01*
X0057047Y0198579D02*
X0053879Y0198579D01*
X0053700Y0196980D02*
X0064949Y0196980D01*
X0063984Y0198984D02*
X0064427Y0199426D01*
X0064774Y0199946D01*
X0065013Y0200524D01*
X0065135Y0201137D01*
X0065135Y0202250D01*
X0060761Y0202250D01*
X0060761Y0198275D01*
X0062273Y0198275D01*
X0062887Y0198397D01*
X0063464Y0198637D01*
X0063984Y0198984D01*
X0063325Y0198579D02*
X0082721Y0198579D01*
X0082100Y0196980D02*
X0078651Y0196980D01*
X0080249Y0195382D02*
X0082100Y0195382D01*
X0081848Y0193783D02*
X0082691Y0193783D01*
X0083446Y0192185D02*
X0084112Y0192185D01*
X0085045Y0190586D02*
X0085243Y0190586D01*
X0088357Y0190586D02*
X0089500Y0190586D01*
X0089487Y0192185D02*
X0089500Y0192185D01*
X0089500Y0200177D02*
X0089345Y0200177D01*
X0089500Y0201776D02*
X0065135Y0201776D01*
X0064870Y0200177D02*
X0084255Y0200177D01*
X0083424Y0204027D02*
X0086351Y0205437D01*
X0088377Y0207977D01*
X0089100Y0211144D01*
X0088377Y0214311D01*
X0088377Y0214311D01*
X0086351Y0216851D01*
X0083424Y0218261D01*
X0080176Y0218261D01*
X0077249Y0216851D01*
X0075223Y0214311D01*
X0074500Y0211144D01*
X0075223Y0207977D01*
X0075223Y0207977D01*
X0077249Y0205437D01*
X0080176Y0204027D01*
X0083424Y0204027D01*
X0085388Y0204973D02*
X0089500Y0204973D01*
X0089500Y0206571D02*
X0087256Y0206571D01*
X0086351Y0205437D02*
X0086351Y0205437D01*
X0086351Y0205437D01*
X0088377Y0207977D02*
X0088377Y0207977D01*
X0088421Y0208170D02*
X0089500Y0208170D01*
X0089500Y0209768D02*
X0088786Y0209768D01*
X0089049Y0211367D02*
X0089482Y0211367D01*
X0089205Y0212965D02*
X0088684Y0212965D01*
X0088685Y0214564D02*
X0088176Y0214564D01*
X0087554Y0216162D02*
X0086901Y0216162D01*
X0086351Y0216851D02*
X0086351Y0216851D01*
X0085631Y0217761D02*
X0084463Y0217761D01*
X0079137Y0217761D02*
X0062656Y0217761D01*
X0063271Y0216162D02*
X0076699Y0216162D01*
X0077249Y0216851D02*
X0077249Y0216851D01*
X0077249Y0216851D01*
X0075424Y0214564D02*
X0063300Y0214564D01*
X0063300Y0212965D02*
X0074916Y0212965D01*
X0075223Y0214311D02*
X0075223Y0214311D01*
X0074551Y0211367D02*
X0063300Y0211367D01*
X0062817Y0209768D02*
X0074814Y0209768D01*
X0074500Y0211144D02*
X0074500Y0211144D01*
X0075179Y0208170D02*
X0061042Y0208170D01*
X0060761Y0206571D02*
X0059611Y0206571D01*
X0059611Y0204973D02*
X0060761Y0204973D01*
X0060761Y0203374D02*
X0089500Y0203374D01*
X0078212Y0204973D02*
X0065044Y0204973D01*
X0064079Y0206571D02*
X0076344Y0206571D01*
X0077249Y0205437D02*
X0077249Y0205437D01*
X0060761Y0201776D02*
X0059611Y0201776D01*
X0059611Y0200177D02*
X0060761Y0200177D01*
X0060761Y0198579D02*
X0059611Y0198579D01*
X0059227Y0195382D02*
X0054373Y0195382D01*
X0056011Y0193783D02*
X0057589Y0193783D01*
X0056927Y0192185D02*
X0056673Y0192185D01*
X0056700Y0190586D02*
X0056900Y0190586D01*
X0056643Y0188988D02*
X0057389Y0188988D01*
X0059500Y0208170D02*
X0059500Y0208170D01*
X0059500Y0209768D02*
X0059500Y0209768D01*
X0059500Y0211367D02*
X0059500Y0211367D01*
X0059500Y0212965D02*
X0059500Y0212965D01*
X0056344Y0217761D02*
X0055196Y0217761D01*
X0055490Y0216162D02*
X0055729Y0216162D01*
X0032584Y0163412D02*
X0031755Y0163412D01*
X0033718Y0157018D02*
X0034986Y0157018D01*
X0021984Y0192185D02*
X0021616Y0192185D01*
X0021616Y0193783D02*
X0021984Y0193783D01*
X0021984Y0195382D02*
X0021616Y0195382D01*
X0018377Y0207977D02*
X0018377Y0207977D01*
X0057762Y0133040D02*
X0060838Y0133040D01*
X0060557Y0134638D02*
X0058043Y0134638D01*
X0058043Y0136237D02*
X0060557Y0136237D01*
X0060557Y0137835D02*
X0058043Y0137835D01*
X0061881Y0152222D02*
X0072400Y0152222D01*
X0072400Y0153821D02*
X0061881Y0153821D01*
X0066265Y0037129D02*
X0023700Y0037129D01*
X0023700Y0035531D02*
X0066119Y0035531D01*
X0067013Y0033932D02*
X0063382Y0033932D01*
X0064750Y0032334D02*
X0073060Y0032334D01*
X0072487Y0030735D02*
X0064981Y0030735D01*
D27*
X0064300Y0036144D03*
X0061800Y0031144D03*
X0064300Y0043644D03*
X0066800Y0051144D03*
X0071800Y0053644D03*
X0069300Y0036144D03*
X0054300Y0073644D03*
X0051800Y0063644D03*
X0051800Y0053644D03*
X0041800Y0036144D03*
X0026800Y0026144D03*
X0016800Y0041144D03*
X0014300Y0058644D03*
X0024300Y0073644D03*
X0026800Y0078644D03*
X0021800Y0083644D03*
X0016800Y0091144D03*
X0014300Y0086144D03*
X0021800Y0101144D03*
X0034300Y0086144D03*
X0036800Y0081144D03*
X0034300Y0076144D03*
X0049300Y0083644D03*
X0051800Y0098644D03*
X0046800Y0121144D03*
X0046800Y0141144D03*
X0046800Y0146144D03*
X0044300Y0153644D03*
X0049300Y0171144D03*
X0046800Y0186144D03*
X0036800Y0161144D03*
X0034300Y0166144D03*
X0036800Y0151144D03*
X0036800Y0136144D03*
X0021800Y0153644D03*
X0021800Y0166144D03*
X0014300Y0178644D03*
X0011800Y0171144D03*
X0014300Y0191144D03*
X0061800Y0166144D03*
X0066800Y0148644D03*
X0066800Y0138644D03*
X0069300Y0131144D03*
X0074300Y0146144D03*
X0076800Y0163644D03*
X0076800Y0108644D03*
X0071800Y0086144D03*
X0076800Y0081144D03*
M02*
